<?xml version="1.0" standalone="no"?>
<!DOCTYPE svg PUBLIC "-//W3C//DTD SVG 20010904//EN"
 "http://www.w3.org/TR/2001/REC-SVG-20010904/DTD/svg10.dtd">
<svg version="1.0" xmlns="http://www.w3.org/2000/svg"
 width="900.000000pt" height="1165.000000pt" viewBox="0 0 900.000000 1165.000000"
 preserveAspectRatio="xMidYMid meet">

<g transform="translate(0.000000,1165.000000) scale(0.100000,-0.100000)"
fill="#000000" stroke="none">
<path d="M0 9735 c0 -1053 4 -1915 8 -1915 13 0 71 29 122 61 68 42 133 61
200 57 33 -2 60 -6 60 -9 0 -3 27 -4 60 -3 46 3 60 0 60 -10 0 -8 7 -16 15
-20 8 -3 15 -14 15 -25 0 -11 8 -22 17 -25 17 -5 162 -21 173 -19 85 12 94 12
80 3 -12 -8 -11 -10 8 -10 15 0 21 -4 16 -11 -5 -8 1 -10 20 -7 22 4 30 0 42
-23 16 -31 20 -33 129 -30 83 1 130 8 155 21 10 6 27 10 38 10 11 0 25 7 32
15 6 8 15 14 18 13 4 -1 23 2 42 6 36 9 112 46 95 46 -6 0 -2 7 8 15 11 7 25
11 33 8 8 -3 14 0 14 6 0 6 4 11 10 11 5 0 43 22 85 49 44 29 92 52 117 56 44
7 86 28 127 65 13 11 27 20 30 20 3 0 22 14 41 30 19 16 42 30 51 30 8 0 24 7
35 15 10 8 26 15 35 15 8 0 26 11 39 25 13 14 29 25 36 25 18 0 64 58 64 81 0
10 7 19 15 19 8 0 15 5 15 10 0 6 6 10 13 10 14 0 83 70 80 81 -1 4 5 13 14
21 12 9 15 9 9 1 -4 -7 -3 -13 3 -13 5 0 12 -8 14 -17 3 -10 5 -3 6 15 0 17 5
32 9 32 5 0 9 15 10 33 2 44 19 90 31 82 6 -3 13 1 18 8 6 10 23 12 71 7 35
-3 66 -2 68 2 3 4 -4 8 -15 8 -11 0 -22 4 -25 9 -6 10 56 22 64 12 8 -10 30
-12 30 -2 0 6 24 7 57 4 46 -5 55 -4 49 8 -4 8 -1 6 7 -3 8 -10 22 -18 31 -18
9 0 16 -6 16 -12 0 -8 3 -9 8 -3 8 11 72 14 72 3 0 -3 -8 -9 -17 -11 -17 -4
-17 -5 0 -6 9 0 17 -5 17 -10 0 -6 19 -11 43 -13 37 -3 42 -6 40 -25 -2 -17 4
-24 23 -29 14 -4 21 -9 16 -13 -7 -4 -5 -13 4 -25 15 -21 84 -33 94 -16 5 8
58 0 114 -16 12 -4 16 -2 12 5 -4 6 -2 11 3 11 6 0 11 -6 11 -12 0 -9 3 -9 8
-2 14 21 102 13 102 -10 0 -9 7 -12 20 -9 11 3 17 10 14 15 -4 6 13 9 42 8 70
-2 76 -1 68 11 -5 8 1 10 20 7 22 -4 29 0 40 21 8 14 23 35 35 45 12 11 21 25
21 33 0 7 3 13 8 13 4 0 12 10 17 22 6 11 20 28 33 36 21 14 23 14 29 -6 10
-39 45 -27 76 25 31 51 32 57 22 125 -12 76 0 114 48 149 42 31 96 99 124 157
19 39 56 67 79 58 10 -4 26 5 44 24 15 16 33 30 39 30 7 0 15 8 19 18 12 28
65 106 87 125 87 79 105 102 135 173 17 42 34 92 37 111 8 46 62 103 97 103
15 0 42 6 61 14 19 8 51 13 71 11 45 -4 173 52 174 75 0 20 40 42 118 65 48
14 64 23 68 41 9 34 44 62 105 82 52 18 54 20 55 57 1 30 8 44 30 62 16 12 35
23 42 23 7 0 11 4 7 9 -3 6 3 9 12 9 34 -3 72 12 77 30 5 14 15 16 50 14 30
-3 59 3 92 19 27 12 52 21 57 21 4 -1 7 4 7 12 0 12 20 26 36 26 11 0 2 -39
-11 -44 -22 -8 -18 -26 5 -26 11 0 20 3 20 8 0 7 47 32 62 32 4 0 8 -7 8 -15
0 -17 -29 -34 -47 -28 -24 9 -13 -12 13 -24 30 -14 60 -3 105 40 32 31 62 47
87 47 11 0 25 7 32 15 7 8 20 15 29 15 9 0 27 9 41 20 37 29 93 26 125 -6 16
-16 24 -32 20 -42 -6 -16 10 -32 33 -32 6 0 22 11 34 25 24 28 40 33 32 10 -4
-10 3 -18 21 -25 24 -9 30 -7 43 11 11 17 16 18 23 8 6 -10 9 -11 9 -2 0 7 3
12 8 11 9 -2 60 11 96 24 l28 11 -23 18 c-20 15 -21 19 -9 34 11 14 24 16 65
11 27 -3 51 -10 53 -16 4 -12 39 -13 46 -1 4 5 0 12 -6 14 -10 4 -9 6 1 6 11
1 10 6 -4 21 -16 18 -15 34 3 36 4 0 15 4 26 9 10 5 21 4 25 -2 3 -6 19 7 36
28 30 38 63 59 91 59 8 0 42 14 76 30 33 17 66 30 74 30 8 0 31 7 52 16 20 10
44 17 52 18 8 1 21 19 29 41 30 78 32 79 216 89 50 2 50 3 57 42 4 21 7 207 7
412 l1 372 570 0 570 0 0 -455 c0 -442 -1 -456 -20 -475 -19 -19 -34 -20 -552
-20 -471 -1 -531 -2 -514 -15 16 -12 57 -15 195 -15 97 0 182 -4 190 -9 12 -8
13 -15 3 -35 -10 -23 -9 -26 23 -36 37 -12 45 -27 20 -36 -9 -4 -15 -19 -15
-40 0 -22 -6 -37 -16 -41 -8 -3 -13 -11 -10 -18 5 -14 -28 -55 -44 -55 -6 0
-10 -7 -10 -15 0 -17 12 -19 26 -5 7 7 9 -2 6 -25 -3 -21 0 -35 7 -35 6 0 11
9 11 21 0 11 4 18 9 15 5 -3 7 -15 4 -26 -11 -41 25 -33 84 19 58 52 101 65
95 29 -2 -15 5 -16 59 -12 52 4 60 2 55 -11 -7 -19 4 -19 29 -1 18 12 20 11
21 -10 1 -16 -4 -24 -20 -27 -11 -2 2 -5 31 -6 40 -1 55 3 63 17 9 13 10 10 5
-15 -8 -39 7 -44 23 -8 6 13 22 27 35 31 14 3 29 15 34 27 l9 21 20 -21 c59
-65 84 -117 84 -174 0 -31 7 -55 20 -72 24 -30 25 -37 6 -37 -8 0 -17 -4 -21
-9 -3 -6 3 -9 12 -9 10 0 26 -3 36 -7 12 -5 17 -3 17 9 0 9 -4 16 -10 16 -5 0
-10 5 -10 10 0 6 9 10 20 10 11 0 20 -5 20 -10 0 -6 3 -9 8 -8 12 5 10 -16 -6
-39 -8 -13 -18 -20 -24 -17 -5 3 -12 -3 -15 -14 -5 -19 -41 -42 -66 -42 -7 0
-20 -9 -30 -20 -9 -11 -12 -20 -7 -20 17 0 11 -38 -7 -45 -10 -3 -20 -6 -22
-5 -7 3 -21 -25 -21 -42 0 -11 6 -15 20 -11 22 6 28 -12 6 -20 -9 -4 -14 -22
-13 -54 0 -39 -3 -48 -17 -46 -11 0 -15 -4 -12 -13 3 -9 -1 -14 -14 -14 -10 0
-22 -4 -25 -10 -4 -6 7 -10 24 -10 26 0 31 -4 31 -24 0 -13 3 -31 6 -40 4 -10
1 -16 -8 -16 -12 0 -52 -38 -52 -50 0 -6 -23 -30 -30 -30 -2 0 -7 8 -9 18 -3
11 -5 9 -6 -8 -2 -47 12 -55 56 -30 22 12 47 34 57 48 l17 27 -7 -35 c-8 -45
-17 -55 -75 -88 -27 -15 -49 -33 -49 -39 0 -7 -4 -13 -9 -13 -5 0 -13 -9 -16
-20 -4 -11 -10 -18 -14 -15 -10 5 -31 -39 -31 -63 0 -10 -13 -26 -30 -35 -27
-16 -39 -48 -27 -72 4 -9 -84 -55 -104 -55 -14 0 -21 -9 -25 -29 -5 -23 -13
-31 -35 -36 -16 -4 -27 -11 -23 -16 3 -5 -2 -9 -11 -9 -8 0 -18 -8 -21 -17
-13 -39 -28 -63 -41 -63 -7 0 -13 -7 -13 -15 0 -8 -5 -15 -11 -15 -6 0 -8 -7
-5 -16 3 -8 2 -13 -3 -10 -5 3 -11 0 -14 -8 -4 -10 1 -12 16 -9 16 4 18 2 8
-5 -7 -5 -10 -15 -7 -21 4 -6 3 -11 -2 -11 -16 0 -20 -35 -6 -48 7 -6 20 -9
28 -6 8 3 21 1 28 -5 7 -7 22 -18 33 -26 17 -12 17 -14 4 -15 -27 0 -34 -80
-8 -80 5 0 9 -9 9 -20 0 -14 -7 -20 -21 -20 -19 0 -77 -49 -70 -58 1 -2 0 -6
-3 -9 -3 -4 -6 -1 -6 6 0 23 -30 42 -74 46 -42 4 -59 -3 -68 -30 -1 -5 -12
-10 -23 -10 -11 0 -31 -8 -45 -17 -25 -19 -80 -25 -80 -9 0 5 -9 11 -20 14
-11 3 -20 1 -20 -4 0 -5 8 -9 18 -9 10 0 13 -3 6 -8 -6 -4 -10 -25 -10 -47 1
-31 -5 -46 -26 -67 -15 -14 -30 -42 -34 -62 -3 -20 -11 -39 -16 -42 -5 -3 -13
-17 -18 -30 -5 -13 -16 -24 -25 -24 -8 0 -14 -3 -14 -7 4 -19 -15 -75 -26 -80
-7 -2 -11 -13 -8 -23 3 -11 2 -28 -3 -37 -4 -10 -8 -22 -8 -28 -1 -5 -11 -11
-23 -13 -27 -4 -29 -15 -7 -36 8 -9 11 -16 5 -16 -6 0 -11 -11 -11 -25 0 -14
-5 -25 -12 -25 -9 0 -9 -3 -1 -11 6 -6 9 -18 6 -25 -3 -8 2 -17 11 -20 21 -8
20 -26 -3 -53 -19 -22 -18 -53 1 -78 5 -7 6 -18 2 -24 -4 -8 -3 -9 4 -5 7 4
12 3 12 -3 0 -7 10 -6 30 0 16 6 30 15 30 20 0 5 20 6 45 2 35 -4 45 -3 45 8
0 15 53 49 76 49 8 0 14 5 14 10 0 6 10 15 23 20 12 5 16 9 10 9 -7 1 -13 10
-13 20 0 14 7 19 25 17 28 -1 42 -25 23 -38 -7 -4 -8 -8 -3 -9 6 0 18 -2 28
-4 13 -2 17 4 17 26 0 23 5 29 23 30 16 1 18 2 5 6 -10 2 -18 12 -18 22 0 14
7 16 35 13 34 -4 47 -23 25 -37 -6 -3 -10 -11 -10 -17 0 -6 3 -9 6 -5 8 7 65
-13 82 -29 26 -26 7 -74 -29 -74 -23 0 -36 -39 -18 -51 12 -7 11 -9 -1 -9 -9
-1 -6 -5 8 -10 22 -10 52 -4 52 10 0 28 105 100 147 100 12 0 28 8 35 18 23
30 57 43 128 47 75 4 86 -4 49 -36 -18 -15 -20 -21 -9 -34 9 -11 10 -19 1 -28
-7 -10 -7 -17 0 -24 13 -13 2 -36 -12 -28 -5 4 -9 1 -9 -4 0 -6 3 -11 8 -11
19 0 5 -69 -21 -103 -17 -23 -22 -34 -12 -31 25 10 6 -26 -35 -66 -21 -20 -36
-44 -36 -57 0 -21 2 -22 24 -7 31 20 38 12 17 -20 -16 -24 -16 -26 -1 -26 19
0 21 -11 4 -28 -9 -9 -9 -12 0 -12 6 0 9 -7 6 -15 -5 -11 -11 -12 -27 -4 -20
9 -20 9 -5 -4 10 -8 14 -17 10 -21 -4 -4 0 -6 8 -4 10 2 14 -3 12 -14 -3 -18
11 -23 51 -19 22 3 35 -28 16 -40 -8 -5 -9 -9 -3 -9 7 0 11 -18 11 -42 0 -24
-2 -37 -4 -30 -3 6 -9 12 -14 12 -13 0 -11 -34 3 -48 12 -12 29 -102 18 -102
-3 0 -11 5 -17 11 -7 7 -12 3 -15 -15 -4 -20 -1 -26 13 -26 15 0 19 -8 19 -35
0 -19 -5 -35 -11 -35 -5 0 -7 -5 -3 -12 4 -7 7 -27 6 -44 -2 -20 3 -34 12 -37
12 -5 14 3 9 44 -5 45 -4 49 15 49 16 0 20 -6 20 -35 0 -19 -4 -35 -9 -35 -5
0 -9 -4 -9 -10 0 -5 9 -10 20 -10 11 0 20 -7 20 -15 0 -8 5 -15 10 -15 6 0 10
-8 10 -19 0 -10 17 -29 38 -44 l38 -25 23 24 c13 13 32 24 43 24 21 0 48 22
48 39 0 6 10 11 23 11 15 0 34 13 51 34 14 19 38 37 51 40 14 4 25 13 25 21 0
10 11 15 35 15 33 0 35 2 35 34 0 30 3 35 27 38 22 2 30 10 38 41 6 21 13 36
16 33 3 -3 4 7 1 24 -4 25 -1 30 24 35 16 4 45 13 64 20 19 7 71 21 115 30 44
9 94 20 111 26 44 13 44 13 44 -31 0 -44 2 -45 49 -29 l31 11 0 2264 0 2264
-4500 0 -4500 0 0 -1915z m2405 1545 c-8 -24 -19 -48 -24 -54 -5 -6 -34 -58
-64 -116 -30 -58 -70 -133 -88 -167 l-34 -62 23 -24 22 -24 -22 -28 c-22 -28
-22 -28 -38 -7 -17 20 -17 20 -39 -24 -28 -60 -179 -301 -192 -310 -19 -11
-21 4 -3 38 9 18 41 74 72 123 30 50 87 151 125 225 166 322 260 491 268 483
6 -6 3 -27 -6 -53z m-185 -5 c7 -8 21 -15 31 -15 24 0 31 -14 20 -43 -7 -18
-20 -26 -45 -31 -20 -3 -52 -9 -71 -12 -19 -3 -43 -3 -52 1 -10 5 -25 7 -35 6
-41 -5 -31 66 11 75 14 3 37 12 51 19 33 19 74 19 90 0z m194 -385 c23 -8 25
-15 28 -77 4 -80 22 -92 69 -47 16 15 31 26 33 23 2 -2 6 -22 8 -44 l3 -40
-52 -6 c-29 -4 -67 -16 -85 -28 -42 -26 -34 -27 17 -1 42 22 75 26 75 10 0 -5
-7 -10 -15 -10 -23 0 -63 -21 -69 -37 -4 -9 3 -7 20 6 28 22 59 27 69 12 3 -5
-3 -12 -14 -16 -10 -3 -27 -15 -37 -27 l-19 -22 29 22 c36 27 56 28 56 2 0
-25 -39 -50 -89 -57 -37 -5 -41 -3 -69 35 -16 23 -35 54 -41 70 -7 17 -36 44
-71 67 l-58 38 21 33 c12 19 24 34 27 34 3 0 26 -20 50 -45 43 -44 86 -61 74
-30 -3 8 3 26 15 41 22 28 17 54 -16 72 -8 5 -13 14 -9 21 9 13 17 14 50 1z
m196 -34 c0 -32 19 -44 35 -23 7 10 20 17 29 17 9 0 16 5 16 12 0 16 13 0 28
-34 10 -25 9 -29 -15 -42 -25 -13 -26 -17 -24 -74 3 -79 -10 -104 -52 -100
-25 2 -31 7 -29 22 3 16 1 18 -11 8 -12 -10 -15 0 -20 70 -3 46 -4 84 -2 86 8
8 28 -45 35 -92 7 -49 8 -50 9 -11 1 40 -27 117 -48 129 -17 11 -13 44 7 49
35 9 42 6 42 -17z m150 -2 c0 -44 -31 -43 -44 2 -6 18 -2 22 19 22 19 0 25 -6
25 -24z m-375 -29 c0 -16 -6 -30 -12 -32 -9 -3 -13 7 -13 32 0 25 4 35 13 33
6 -3 12 -17 12 -33z m255 21 c0 -3 -4 -8 -10 -11 -5 -3 -10 -1 -10 4 0 6 5 11
10 11 6 0 10 -2 10 -4z m-2062 -160 c-3 -69 -4 -71 -30 -74 -25 -3 -28 0 -28
25 0 15 -7 36 -14 46 -16 20 -65 22 -91 3 -17 -12 -19 -31 -22 -205 l-4 -191
25 -25 c20 -20 31 -24 53 -19 33 9 52 31 53 61 0 27 14 36 40 28 17 -6 20 -15
20 -76 l0 -69 -94 3 c-154 4 -166 25 -166 292 l0 185 36 39 c39 44 46 46 152
48 l73 1 -3 -72z m347 52 c21 -98 64 -324 70 -371 3 -31 19 -83 36 -115 16
-31 29 -58 29 -59 0 -2 -31 -3 -68 -3 l-68 0 4 70 4 70 -52 0 -52 0 4 -52 c3
-29 9 -61 13 -70 6 -16 0 -18 -64 -18 -39 0 -71 2 -71 5 0 3 7 16 15 29 14 21
51 186 90 401 26 147 20 135 65 135 33 0 40 -4 45 -22z m398 -10 c-15 -28 -18
-65 -21 -255 l-3 -223 61 0 c36 0 73 6 91 16 29 15 31 14 26 -3 -3 -10 -8 -30
-11 -45 -6 -25 -10 -26 -71 -30 -35 -1 -96 -2 -134 0 l-71 4 18 31 c15 28 17
62 17 252 0 194 -2 224 -17 248 -10 14 -18 29 -18 32 0 3 34 5 75 5 l76 0 -18
-32z m422 15 c-24 -55 -31 -119 -29 -233 1 -69 3 -155 3 -192 l1 -68 55 0 c32
0 69 7 87 16 l31 16 -7 -43 c-4 -24 -8 -45 -10 -47 -5 -4 -257 -4 -262 1 -2 2
3 20 11 40 22 52 21 463 0 491 -8 11 -15 23 -15 28 0 4 32 8 71 8 64 0 70 -2
64 -17z m1509 -5 c3 -13 6 -33 6 -46 0 -22 -1 -22 -30 -7 -45 23 -80 20 -81
-7 -4 -183 4 -416 17 -446 8 -19 14 -36 14 -38 0 -2 -32 -4 -70 -4 l-70 0 14
35 c11 26 15 84 16 232 1 109 1 208 1 221 -1 27 -36 30 -81 7 -33 -17 -34 -16
-19 38 l10 37 133 0 c130 0 134 -1 140 -22z m260 -15 c-9 -21 -18 -79 -21
-130 l-6 -93 62 0 61 0 0 90 c0 58 -5 104 -15 127 -8 19 -15 37 -15 39 0 2 32
4 70 4 39 0 70 -3 70 -8 0 -4 -8 -19 -17 -32 -16 -22 -18 -52 -18 -240 0 -186
2 -219 18 -247 9 -18 17 -34 17 -38 0 -3 -31 -5 -70 -5 -38 0 -70 2 -70 4 0 2
7 20 15 39 10 23 15 69 15 127 l0 90 -47 0 c-74 0 -77 -4 -70 -108 3 -52 12
-103 22 -121 l16 -31 -71 0 c-38 0 -70 1 -70 3 0 1 7 20 15 42 21 59 21 431 0
482 -8 19 -15 37 -15 39 0 2 32 4 70 4 l70 0 -16 -37z m584 -12 c25 -42 25
-43 4 -32 -36 19 -115 31 -129 19 -9 -7 -13 -39 -13 -93 0 -99 8 -110 69 -96
l41 9 0 -42 0 -42 -52 1 -53 0 -3 -83 c-3 -102 5 -117 61 -108 22 4 52 13 68
22 35 18 36 14 4 -36 l-25 -40 -110 0 -110 0 17 27 c16 24 18 54 18 253 0 197
-2 229 -18 258 l-18 33 112 -3 111 -3 26 -44z m-1260 -33 c-3 -7 -15 -15 -28
-18 -13 -3 -41 -27 -63 -53 l-40 -47 23 -25 c21 -22 22 -27 10 -55 -14 -33
-54 -70 -76 -70 -8 0 -31 -17 -52 -38 -57 -57 -125 -87 -197 -87 l-60 0 4 65
c1 36 5 68 8 72 2 5 21 -1 41 -11 51 -26 94 -33 123 -22 20 8 15 10 -31 10
-77 1 -143 44 -113 74 3 4 15 -1 26 -10 16 -15 40 -18 157 -19 132 -1 139 0
144 20 10 36 7 43 -17 39 -18 -4 -29 5 -55 40 -17 25 -32 48 -32 52 0 4 20 5
44 3 39 -5 46 -3 57 19 21 39 68 73 101 73 19 0 28 -4 26 -12z m32 -23 c0 -8
-7 -15 -15 -15 -16 0 -20 12 -8 23 11 12 23 8 23 -8z m3957 -1 c-3 -3 -12 -4
-19 -1 -8 3 -5 6 6 6 11 1 17 -2 13 -5z m-4257 -94 c0 -76 -79 -109 -130 -55
-27 29 -28 28 26 43 22 7 49 21 59 32 29 32 45 25 45 -20z m60 -35 c0 -13 -10
-33 -22 -45 -12 -11 -18 -20 -13 -20 15 0 45 33 45 49 0 11 5 9 16 -8 24 -33
8 -42 -87 -47 -102 -6 -146 1 -159 26 -16 29 4 32 40 5 39 -29 72 -25 110 11
19 19 24 34 24 66 l-2 42 24 -27 c13 -16 24 -39 24 -52z m258 49 c12 -8 22
-22 22 -30 0 -16 -26 -19 -35 -4 -13 21 -54 9 -84 -25 l-31 -36 0 26 c0 33 50
85 82 85 13 0 34 -7 46 -16z m20 -66 c-7 -19 -38 -22 -38 -4 0 10 9 16 21 16
12 0 19 -5 17 -12z m-198 -22 c0 -2 -3 -11 -6 -20 -9 -23 -24 -20 -24 4 0 11
7 20 15 20 8 0 15 -2 15 -4z m-340 -24 c0 -18 -28 -54 -54 -69 -8 -4 -27 -30
-43 -58 -31 -54 -63 -72 -106 -61 -52 13 -42 79 13 91 18 4 42 21 58 42 49 64
61 73 97 73 27 0 35 -4 35 -18z m5630 -177 c10 -12 10 -15 -2 -15 -8 0 -15 7
-15 15 0 8 1 15 2 15 2 0 8 -7 15 -15z m-5624 -34 c-2 -9 -7 -28 -10 -43 -4
-17 -13 -28 -22 -28 -14 0 -15 7 -10 42 4 22 9 45 12 49 8 14 35 -3 30 -20z
m114 -11 c0 -45 -25 -104 -40 -95 -14 9 -12 25 3 25 8 0 11 16 9 55 -3 45 -1
55 12 55 12 0 16 -10 16 -40z m-129 -85 c-1 -15 -24 -12 -29 3 -3 9 2 13 12
10 10 -1 17 -7 17 -13z m-1616 -76 c113 -31 172 -144 129 -247 -8 -20 -27 -49
-41 -64 l-27 -28 27 -27 c93 -98 65 -247 -58 -304 -31 -15 -65 -19 -152 -19
l-112 0 19 43 c18 38 20 67 20 305 0 211 -3 270 -15 299 -8 19 -15 39 -15 44
0 13 177 11 225 -2z m489 -1 c10 -35 49 -207 70 -313 13 -66 32 -156 41 -200
9 -44 27 -101 40 -127 l24 -48 -69 0 c-72 0 -76 3 -61 42 4 13 5 45 2 73 l-6
50 -81 2 -82 3 -6 -31 c-10 -49 -7 -78 9 -109 l16 -30 -71 0 c-38 0 -70 2 -70
4 0 2 9 23 19 47 11 24 28 89 40 144 17 83 87 402 106 483 4 18 12 22 41 22
19 0 36 -6 38 -12z m426 -8 c-9 -32 -1 -88 23 -155 28 -78 126 -317 134 -325
2 -3 3 94 1 216 -3 187 -6 224 -20 246 -15 23 -16 27 -2 32 23 9 124 7 124 -1
0 -5 -7 -27 -15 -50 -11 -33 -15 -97 -14 -290 0 -212 3 -256 18 -300 l18 -53
-73 0 -73 0 9 29 c4 16 4 45 0 63 -10 38 -84 229 -129 333 l-30 70 0 -190 c0
-177 5 -244 24 -287 6 -16 0 -18 -64 -18 -39 0 -71 2 -71 5 0 4 8 20 18 38 15
28 17 64 17 307 0 243 -2 279 -17 307 -10 18 -18 34 -18 36 0 2 33 4 73 3 59
-1 71 -4 67 -16z m520 0 c-9 -32 -1 -88 23 -155 28 -78 126 -317 134 -325 2
-3 3 94 1 216 -3 187 -6 224 -20 246 -15 23 -16 27 -2 32 23 9 124 7 124 -1 0
-5 -7 -27 -15 -50 -11 -33 -15 -97 -14 -290 0 -212 3 -256 18 -300 l18 -53
-74 0 c-51 0 -72 3 -67 11 22 36 -11 145 -121 404 l-35 80 1 -190 c0 -177 6
-244 24 -287 6 -16 0 -18 -64 -18 -39 0 -71 2 -71 5 0 4 8 20 18 38 15 28 17
64 17 307 0 243 -2 279 -17 307 -10 18 -18 34 -18 36 0 2 33 4 73 3 59 -1 71
-4 67 -16z m729 -13 c5 -18 12 -46 16 -64 l6 -32 -60 31 c-44 23 -78 32 -130
36 l-71 5 0 -127 0 -126 63 0 c34 1 80 7 102 15 22 8 41 15 43 15 1 0 2 -27 2
-60 0 -33 -3 -60 -7 -60 -5 1 -19 7 -33 15 -15 9 -54 14 -97 15 l-73 0 0 -135
0 -135 69 0 c58 0 79 5 137 34 38 19 70 33 72 32 1 -2 -9 -31 -24 -65 l-27
-61 -168 0 c-93 0 -169 2 -169 5 0 4 8 20 18 38 25 47 32 525 8 598 -9 26 -16
50 -16 52 0 3 74 5 164 6 l165 0 10 -32z m428 12 c57 -21 113 -99 113 -157 0
-68 -42 -145 -98 -182 l-23 -15 46 -125 c26 -69 55 -140 66 -158 10 -18 19
-35 19 -38 0 -2 -31 -4 -69 -4 l-68 0 4 48 c4 34 -3 71 -22 132 -41 127 -49
140 -89 140 l-33 0 3 -129 c1 -71 7 -138 13 -149 20 -37 14 -42 -59 -42 l-70
0 20 37 c19 35 20 56 20 313 -1 220 -4 280 -15 300 -28 49 -24 51 100 45 63
-3 127 -10 142 -16z m491 -3 c44 -23 82 -70 89 -109 6 -37 5 -37 -29 -37 -32
0 -36 3 -42 32 -13 64 -75 94 -134 64 -35 -18 -52 -59 -52 -128 0 -67 42 -112
114 -121 95 -13 148 -78 149 -181 0 -70 -17 -111 -63 -150 -39 -32 -68 -40
-125 -34 -54 7 -100 38 -125 88 -29 57 -26 70 14 70 30 0 35 -4 41 -29 9 -43
49 -75 92 -75 27 0 42 7 64 32 26 28 29 40 29 96 0 87 -27 121 -103 131 -65 9
-96 27 -127 73 -21 30 -25 47 -25 113 0 86 14 115 75 157 39 26 116 30 158 8z
m4352 -476 c0 -5 -4 -10 -10 -10 -5 0 -10 5 -10 10 0 6 5 10 10 10 6 0 10 -4
10 -10z m-475 -770 c9 -15 -4 -30 -20 -24 -8 4 -13 10 -10 14 3 5 -1 11 -7 13
-7 3 -3 6 9 6 12 1 25 -3 28 -9z m-5062 -177 c-7 -2 -21 -2 -30 0 -10 3 -4 5
12 5 17 0 24 -2 18 -5z m-293 -33 c0 -5 -5 -10 -11 -10 -5 0 -7 5 -4 10 3 6 8
10 11 10 2 0 4 -4 4 -10z m-50 -130 c0 -5 -4 -10 -10 -10 -5 0 -10 5 -10 10 0
6 5 10 10 10 6 0 10 -4 10 -10z m1085 0 c-3 -5 -10 -10 -16 -10 -5 0 -9 5 -9
10 0 6 7 10 16 10 8 0 12 -4 9 -10z m-415 -10 c0 -5 -4 -10 -9 -10 -6 0 -13 5
-16 10 -3 6 1 10 9 10 9 0 16 -4 16 -10z m4636 -414 c6 -9 17 -16 23 -16 7 0
9 -5 6 -11 -4 -6 3 -17 15 -26 13 -9 19 -21 15 -30 -3 -9 -1 -21 5 -28 8 -9 8
-15 0 -20 -5 -3 -10 -19 -10 -34 0 -27 -3 -28 -41 -27 -32 0 -39 4 -36 18 3 9
-6 25 -19 37 -13 12 -24 28 -24 38 0 9 -3 13 -6 10 -4 -3 -15 -2 -26 4 -11 6
-17 13 -14 16 3 4 -1 15 -11 25 -15 17 -15 20 8 44 20 22 30 25 64 21 21 -3
44 -13 51 -21z m-156 -120 c0 -3 -4 -8 -10 -11 -5 -3 -10 -1 -10 4 0 6 5 11
10 11 6 0 10 -2 10 -4z m310 -81 c0 -8 -4 -15 -10 -15 -5 0 -10 7 -10 15 0 8
5 15 10 15 6 0 10 -7 10 -15z m190 -395 c0 -5 -4 -10 -10 -10 -5 0 -10 5 -10
10 0 6 5 10 10 10 6 0 10 -4 10 -10z m520 -534 c0 -3 -4 -8 -10 -11 -5 -3 -10
-1 -10 4 0 6 5 11 10 11 6 0 10 -2 10 -4z"/>
<path d="M2150 11260 c0 -5 6 -10 14 -10 8 0 18 5 21 10 3 6 -3 10 -14 10 -12
0 -21 -4 -21 -10z"/>
<path d="M2065 11240 c-3 -5 -2 -10 4 -10 5 0 13 5 16 10 3 6 2 10 -4 10 -5 0
-13 -4 -16 -10z"/>
<path d="M2110 11239 c0 -5 9 -9 20 -9 11 0 20 2 20 4 0 2 -9 6 -20 9 -11 3
-20 1 -20 -4z"/>
<path d="M2190 11240 l-25 -8 28 -1 c15 -1 27 4 27 9 0 6 -1 10 -2 9 -2 -1
-14 -5 -28 -9z"/>
<path d="M2055 11211 c-3 -5 -1 -12 5 -16 5 -3 10 1 10 9 0 18 -6 21 -15 7z"/>
<path d="M2106 11211 c-4 -5 3 -7 14 -4 23 6 26 13 6 13 -8 0 -17 -4 -20 -9z"/>
<path d="M2178 11213 c6 -2 18 -2 25 0 6 3 1 5 -13 5 -14 0 -19 -2 -12 -5z"/>
<path d="M2235 11210 c-3 -5 -1 -10 4 -10 6 0 11 5 11 10 0 6 -2 10 -4 10 -3
0 -8 -4 -11 -10z"/>
<path d="M2125 11190 c-4 -6 5 -10 19 -10 14 0 26 5 26 10 0 6 -9 10 -19 10
-11 0 -23 -4 -26 -10z"/>
<path d="M873 10535 c-6 -22 -14 -64 -18 -92 l-7 -53 37 0 c30 0 35 3 31 18
-5 20 -24 117 -29 147 -1 13 -6 6 -14 -20z"/>
<path d="M2413 10348 c7 -4 28 -8 47 -8 19 0 40 4 47 8 6 4 -15 7 -47 7 -32 0
-53 -3 -47 -7z"/>
<path d="M620 9900 l0 -130 50 0 c91 0 143 49 142 133 -1 74 -61 127 -144 127
l-48 0 0 -130z"/>
<path d="M620 9581 l0 -131 53 0 c89 0 136 46 137 133 0 40 -5 53 -34 84 -30
33 -39 37 -95 41 l-61 4 0 -131z"/>
<path d="M1186 9873 c-4 -21 -16 -74 -26 -118 -10 -44 -21 -95 -25 -112 l-7
-33 66 0 c36 0 66 4 66 8 0 13 -60 286 -64 290 -2 1 -7 -14 -10 -35z"/>
<path d="M3182 9907 c2 -70 7 -129 11 -133 3 -4 25 -7 47 -7 93 0 161 95 126
176 -20 49 -69 80 -134 85 l-55 5 5 -126z"/>
<path d="M6449 10431 c7 -5 10 -14 7 -20 -11 -18 3 -13 26 9 l22 20 -35 0
c-23 0 -30 -3 -20 -9z"/>
<path d="M6582 9820 c-35 -17 -69 -30 -75 -30 -8 0 -7 -3 2 -9 15 -10 133 41
139 59 5 13 6 14 -66 -20z"/>
<path d="M7856 9304 c-9 -8 -16 -18 -16 -20 0 -7 38 15 45 26 10 16 -12 12
-29 -6z"/>
<path d="M5236 8973 c-3 -21 -13 -51 -22 -68 -26 -49 -55 -127 -45 -120 6 3
14 -2 19 -12 12 -22 27 -104 23 -118 -2 -5 -5 -17 -6 -25 -8 -55 -18 -70 -56
-82 -35 -10 -39 -14 -39 -45 0 -18 5 -33 10 -33 14 0 13 -43 -2 -58 -9 -9 -9
-12 0 -12 6 0 9 -6 6 -14 -6 -15 41 -46 68 -46 19 0 90 -37 100 -52 11 -18 10
-136 -2 -179 -13 -46 -37 -69 -51 -48 -8 12 -11 11 -20 -3 -5 -10 -19 -18 -29
-18 -10 0 -23 -6 -27 -12 -4 -7 -14 -13 -22 -13 -9 0 -16 -13 -19 -35 -2 -19
-8 -37 -12 -40 -11 -7 -12 -119 -4 -252 6 -91 5 -97 -15 -107 -18 -10 -21 -9
-21 6 0 15 -2 15 -14 -3 -13 -18 -33 -150 -41 -264 -2 -20 -17 -58 -34 -85
-17 -27 -31 -54 -31 -60 0 -21 -61 -106 -73 -102 -16 5 -41 -20 -62 -63 -10
-19 -24 -43 -33 -52 -8 -10 -12 -18 -8 -18 4 0 2 -9 -4 -21 -7 -13 -8 -25 -2
-32 5 -7 6 -21 2 -32 -7 -19 -7 -19 -14 3 -8 25 -26 20 -26 -8 0 -18 -58 -75
-67 -66 -10 10 9 45 45 81 l37 39 -35 -24 c-19 -13 -38 -29 -42 -35 -4 -5 -8
-6 -8 -2 0 5 -10 1 -21 -7 -19 -13 -24 -13 -45 1 -13 8 -22 19 -19 23 3 4 -5
10 -16 13 -17 5 -20 2 -16 -13 3 -12 0 -17 -9 -13 -7 2 -10 12 -7 20 4 11 3
14 -6 9 -7 -5 -22 3 -38 18 -14 14 -21 26 -14 26 6 0 11 4 11 8 0 4 -9 8 -20
8 -19 0 -26 -24 -22 -76 1 -8 3 -38 5 -67 2 -30 11 -58 21 -68 9 -9 16 -21 16
-26 0 -5 7 -9 15 -9 25 0 17 -45 -12 -75 -22 -23 -24 -27 -8 -21 11 5 26 9 33
9 6 0 12 4 12 9 0 4 7 8 15 8 13 0 14 -4 5 -20 -7 -13 -7 -46 0 -107 5 -48 10
-93 10 -100 0 -7 18 -17 40 -23 22 -6 39 -14 39 -18 -6 -38 21 -43 48 -9 13
17 24 22 43 17 20 -5 22 -7 8 -12 -9 -4 -22 -23 -29 -42 -14 -39 -23 -45 -33
-20 -3 8 -11 12 -17 8 -8 -5 -6 -10 5 -16 9 -5 16 -22 16 -39 0 -19 -4 -28
-11 -24 -5 4 -20 -1 -31 -12 -15 -13 -22 -15 -25 -5 -3 6 -14 12 -24 12 -11 0
-17 5 -14 10 10 16 -3 12 -22 -7 -19 -19 -19 -63 -1 -63 6 0 6 -6 -2 -15 -7
-8 -16 -12 -21 -9 -5 3 -9 -4 -9 -16 0 -11 -10 -34 -22 -50 -20 -27 -20 -32
-8 -72 8 -24 12 -50 11 -57 -2 -8 3 -20 11 -26 19 -15 20 -35 1 -35 -15 0 -15
-2 1 -19 10 -11 25 -17 36 -14 13 4 22 -1 26 -13 4 -11 14 -27 23 -37 8 -10
18 -41 22 -70 21 -153 40 -273 44 -287 3 -10 -7 -28 -25 -45 -26 -25 -28 -30
-14 -40 11 -8 18 -32 20 -75 2 -34 8 -68 14 -74 5 -7 11 -29 14 -50 3 -21 7
-40 10 -43 3 -3 -4 -14 -14 -25 -15 -16 -28 -19 -72 -16 -29 1 -59 8 -65 15
-15 14 -17 43 -3 43 14 0 12 26 -3 39 -10 8 -17 7 -25 -1 -15 -15 -16 -48 -2
-48 6 0 10 -6 10 -12 0 -7 14 -40 30 -73 16 -33 30 -74 30 -92 0 -17 6 -33 13
-36 9 -3 9 -10 -2 -30 -17 -32 -36 -35 -51 -7 -12 22 -49 27 -67 9 -6 -6 -52
-11 -112 -10 -77 0 -104 -4 -116 -15 -8 -8 -19 -13 -23 -10 -23 14 5 -64 35
-97 30 -34 93 -153 93 -177 0 -6 4 -10 10 -10 5 0 12 -11 15 -23 6 -24 65 -55
92 -49 20 4 83 -18 83 -29 0 -5 3 -8 8 -8 20 3 32 -2 32 -15 0 -15 21 -26 50
-26 23 0 47 -60 28 -71 -7 -5 -16 -3 -20 4 -5 8 -8 4 -8 -10 0 -13 5 -23 10
-23 15 0 12 -70 -3 -76 -11 -4 -12 -17 -5 -62 5 -31 9 -65 9 -74 0 -9 10 -20
22 -24 12 -3 30 -16 39 -28 10 -11 18 -15 18 -8 0 6 5 12 11 12 6 0 9 -6 6
-13 -3 -8 -2 -18 1 -23 15 -20 72 -54 92 -54 11 0 20 -7 20 -15 0 -8 5 -15 10
-15 6 0 10 -7 10 -15 0 -8 6 -14 13 -12 7 1 11 -6 9 -17 -3 -18 -2 -18 13 -6
15 12 19 12 29 0 6 -9 23 -21 39 -27 15 -7 27 -19 27 -28 0 -8 9 -24 21 -36
14 -14 18 -24 11 -31 -7 -7 -6 -15 4 -25 9 -10 13 -27 10 -45 -3 -21 1 -34 15
-46 10 -9 19 -24 19 -32 0 -9 11 -27 24 -39 14 -13 22 -29 19 -37 -3 -9 2 -14
16 -14 14 0 21 -6 21 -18 0 -10 5 -23 11 -29 6 -6 12 -29 14 -51 2 -42 34 -89
43 -64 7 21 31 -18 32 -50 0 -16 8 -36 18 -46 31 -34 47 -56 65 -92 10 -19 23
-43 30 -53 16 -23 1 -33 -68 -41 -62 -7 -85 -14 -85 -27 0 -5 54 -9 120 -9 89
0 122 -3 126 -13 2 -7 22 -24 44 -37 22 -14 43 -34 46 -45 10 -30 44 -76 54
-70 4 3 11 -2 14 -10 4 -11 18 -15 48 -14 24 0 54 -2 68 -5 14 -3 47 -9 73
-14 26 -5 53 -14 59 -20 14 -14 42 -16 33 -2 -4 6 21 9 65 9 39 -1 69 -3 66
-7 -13 -12 27 -42 49 -36 22 6 37 -4 112 -73 13 -13 28 -23 33 -23 6 0 10 -11
10 -25 0 -15 8 -29 22 -36 30 -16 52 -39 39 -39 -6 0 -11 -7 -11 -15 0 -9 9
-15 24 -15 36 0 86 -12 86 -20 0 -4 -18 -10 -40 -14 -22 -3 -40 -10 -40 -15 0
-5 -8 -12 -17 -14 -10 -3 2 -6 27 -7 48 -2 103 -18 66 -19 -18 -1 -18 -2 -1
-21 10 -11 26 -20 37 -20 10 0 17 -3 16 -8 -2 -4 12 -21 31 -39 32 -31 32 -33
15 -50 -16 -17 -16 -18 -1 -21 21 -4 22 -36 3 -88 -7 -22 -12 -67 -11 -102 2
-34 -1 -62 -6 -62 -5 0 -9 -9 -9 -20 0 -11 3 -19 8 -19 23 4 32 -5 43 -41 7
-22 17 -40 22 -40 5 0 4 -7 -3 -15 -6 -8 -10 -22 -8 -32 2 -13 8 -9 21 17 l18
35 -2 -30 c-3 -61 1 -90 10 -77 7 11 9 11 14 -2 4 -9 4 -23 1 -31 -4 -8 -1
-15 5 -15 6 0 11 5 11 10 0 6 9 10 19 10 15 0 18 -5 13 -22 -3 -13 -10 -27
-16 -31 -8 -6 -7 -10 2 -14 6 -2 12 -13 12 -23 0 -10 9 -20 20 -23 11 -3 20
-12 20 -20 0 -8 8 -17 19 -20 10 -2 20 -15 23 -28 3 -13 9 -33 14 -44 7 -18 6
-19 -10 -6 -12 10 -20 11 -28 3 -6 -6 -17 -8 -24 -5 -8 3 -14 0 -14 -5 0 -6
-21 -10 -47 -10 -146 2 -192 -3 -198 -22 -5 -15 -14 -18 -50 -15 -25 2 -49 7
-55 10 -5 3 -10 2 -10 -4 0 -5 6 -12 13 -15 6 -3 0 -3 -15 0 -16 4 -28 2 -28
-2 0 -15 -171 -4 -202 12 -18 9 -28 11 -28 4 0 -6 -4 -9 -8 -6 -4 2 -14 1 -21
-4 -8 -5 -30 -2 -52 5 -36 13 -40 13 -50 -7 -10 -18 -17 -20 -65 -14 -32 4
-54 2 -54 -3 0 -6 -25 -1 -55 9 -30 10 -55 16 -55 13 0 -3 -7 0 -15 7 -12 10
-15 10 -15 -1 0 -10 -2 -11 -8 -2 -15 24 -69 35 -171 34 -58 -1 -131 4 -163 9
-32 6 -64 8 -70 4 -22 -14 -182 -10 -205 4 -28 17 -173 9 -207 -12 -30 -18
-116 -22 -116 -4 0 11 -2 10 -9 -1 -11 -17 -70 -6 -78 15 -3 8 -9 12 -13 9 -5
-3 -5 16 -2 42 8 61 7 161 -3 442 l-8 224 -83 83 c-103 105 -134 157 -141 235
-5 55 -3 62 35 126 23 37 53 94 68 126 34 76 94 272 94 309 0 43 15 27 65 -70
42 -81 45 -84 39 -44 -3 23 -3 42 0 42 15 0 38 -70 43 -133 10 -132 121 -407
198 -489 19 -21 37 -38 39 -38 2 0 6 10 10 22 3 15 -3 35 -18 58 -13 20 -33
55 -45 78 -20 39 -20 42 -3 31 10 -6 31 -32 46 -56 32 -49 150 -167 211 -211
52 -36 191 -96 205 -87 6 3 26 -3 45 -15 40 -24 42 -22 19 23 -22 43 -34 54
-150 130 -111 74 -147 105 -189 163 l-30 39 45 -42 c75 -71 161 -131 243 -170
69 -33 84 -46 131 -108 29 -38 59 -81 66 -95 14 -24 15 -21 27 54 6 43 14 81
17 84 3 3 24 -7 46 -22 22 -14 48 -26 59 -26 10 0 24 -7 32 -16 12 -14 14 -13
21 7 5 12 6 24 3 27 -3 3 -5 -1 -5 -8 0 -9 -5 -7 -14 5 -8 11 -12 23 -10 27 3
5 -1 8 -9 8 -7 0 -24 12 -38 27 l-24 28 25 -20 c25 -19 25 -19 7 0 -10 11 -25
20 -34 20 -9 0 -17 10 -19 23 -2 12 -2 22 1 22 19 0 118 -53 148 -80 20 -17
37 -28 37 -22 0 21 -41 59 -105 97 -38 22 -76 53 -86 70 -30 51 -66 79 -187
144 -152 82 -250 163 -303 250 -22 37 -25 65 -4 37 12 -16 15 -17 15 -4 0 30
-50 189 -75 238 -32 64 -31 70 4 36 28 -27 29 -27 24 -6 -3 12 -48 66 -100
120 -51 54 -93 100 -93 103 0 11 39 -6 56 -24 9 -10 22 -19 27 -19 17 0 -33
48 -104 101 -116 86 -230 126 -310 108 l-40 -9 -80 80 c-62 63 -100 90 -172
127 -131 67 -191 91 -261 104 -34 6 -71 13 -83 15 -13 3 -23 11 -23 19 0 8 -6
15 -13 15 -8 0 -22 9 -33 21 -10 12 -32 28 -47 36 -23 12 -26 17 -16 29 24 30
87 5 90 -37 1 -8 5 2 9 21 10 42 1 55 -43 64 -30 7 -28 9 48 35 134 46 196 83
279 168 42 42 76 81 76 86 0 5 -8 1 -17 -9 -27 -26 -173 -134 -183 -134 -5 0
-17 -3 -27 -7 -17 -6 -17 -6 0 14 9 11 17 27 17 37 0 13 -6 10 -26 -14 -30
-35 -89 -70 -82 -49 3 8 -50 77 -116 154 -67 77 -155 183 -196 235 -41 52 -81
101 -88 109 -7 7 -26 43 -43 80 -24 53 -28 70 -19 89 15 33 12 63 -8 85 -9 11
-12 17 -6 14 7 -4 17 0 24 8 7 8 25 15 41 15 35 0 36 4 4 42 -21 25 -25 40
-25 94 0 35 3 64 8 64 6 0 32 -20 147 -114 26 -21 99 -26 117 -8 7 7 -1 13
-28 17 -46 8 -87 32 -79 45 4 6 23 10 43 10 30 1 34 3 19 11 -9 5 -21 8 -26 4
-5 -3 -12 -1 -16 5 -3 5 -17 10 -29 10 -53 0 -112 41 -167 115 -12 17 -11 17
15 -3 20 -16 42 -22 77 -22 26 0 51 -5 54 -10 4 -6 12 -10 18 -9 7 2 32 -3 57
-10 92 -27 213 -1 299 63 39 29 129 50 180 42 34 -5 106 6 118 18 10 10 -39
56 -81 78 -60 31 -121 21 -193 -29 -93 -65 -223 -115 -223 -85 0 8 44 22 85
27 24 3 82 35 107 59 15 14 32 26 37 26 5 0 13 4 16 10 3 6 -2 8 -12 5 -10 -3
13 10 52 30 38 19 75 35 83 35 22 0 95 -41 136 -76 44 -38 61 -42 70 -18 6 14
9 14 26 -6 11 -13 20 -21 20 -19 0 20 -65 158 -80 170 -13 11 -23 40 -31 88
-14 85 -20 90 -151 121 -46 11 -84 24 -86 30 -2 6 -11 17 -19 26 -14 14 -14
17 1 32 13 13 33 17 82 15 36 -1 73 -5 82 -9 9 -4 22 -8 29 -10 17 -3 106 -66
116 -81 4 -7 15 -13 24 -13 9 0 14 -3 10 -6 -3 -3 12 -24 34 -46 21 -22 39
-43 39 -47 0 -10 61 -61 72 -61 30 0 -33 120 -105 200 -7 8 -25 40 -40 71 -24
50 -34 60 -80 80 -46 21 -67 23 -172 23 -141 -2 -169 -10 -392 -125 -131 -67
-147 -72 -218 -77 -73 -4 -78 -3 -101 21 -13 14 -24 33 -24 41 0 9 -13 22 -30
31 -30 15 -60 60 -60 90 0 22 -17 19 -23 -5 -4 -17 5 -73 19 -120 5 -13 6 -13
14 0 6 8 10 10 10 5 0 -6 -4 -15 -10 -21 -5 -5 -12 -42 -16 -82 -5 -50 -11
-72 -20 -72 -9 0 -12 9 -8 28 5 23 1 30 -21 40 -19 9 -25 18 -21 30 6 16 5 16
-8 -1 -11 -14 -18 -16 -41 -7 -34 13 -35 12 -23 -20 7 -20 11 -22 19 -10 9 13
10 12 5 -2 -3 -11 7 -29 28 -50 30 -30 34 -40 35 -92 0 -65 -4 -70 -13 -15
-13 81 -48 123 -60 73 -4 -14 -11 -22 -17 -18 -7 4 -8 9 -1 13 15 9 19 43 6
48 -12 4 -37 -48 -37 -76 0 -9 -5 -19 -11 -23 -7 -5 -5 -8 5 -8 9 0 19 3 23 7
14 14 34 11 31 -6 -2 -12 -11 -15 -43 -13 -40 3 -41 3 -52 -38 -6 -23 -9 -44
-6 -47 3 -3 -2 -12 -10 -21 -11 -10 -13 -22 -7 -41 4 -14 8 -50 8 -78 0 -29 0
-53 1 -53 0 0 31 16 70 35 45 23 83 35 109 35 l40 0 -54 -25 c-43 -20 -52 -29
-48 -45 3 -10 -2 -25 -9 -31 -8 -7 -13 -18 -10 -26 3 -7 0 -13 -7 -13 -7 0 1
-9 16 -19 16 -10 28 -22 27 -27 -1 -5 11 -15 27 -22 29 -14 17 -11 -55 10 -36
10 -49 10 -96 -6 -30 -10 -67 -31 -83 -45 -29 -26 -56 -29 -81 -9 -9 8 -19 3
-36 -17 l-24 -28 -11 22 c-7 12 -9 25 -7 30 3 5 -1 12 -10 15 -11 4 -15 15
-12 36 3 22 1 27 -7 20 -17 -14 -37 34 -29 67 6 23 4 25 -14 21 -13 -4 -29 2
-41 13 -11 11 -23 19 -26 19 -17 0 -123 85 -150 120 -16 21 -40 43 -51 48 -12
6 -37 30 -55 53 -19 23 -65 73 -104 110 -38 38 -64 69 -57 69 25 0 7 33 -19
36 -21 2 -30 -5 -49 -37 -24 -44 -20 -60 11 -41 19 12 19 12 5 -11 -14 -21
-14 -25 0 -45 12 -18 19 -21 30 -11 11 9 15 8 20 -4 3 -9 3 -20 0 -26 -4 -5 3
-19 16 -30 21 -20 23 -20 41 -3 20 17 20 16 14 -15 -5 -27 -2 -35 22 -52 16
-11 32 -17 36 -13 5 4 5 1 0 -6 -9 -17 25 -82 43 -82 8 0 12 6 9 14 -4 10 -1
13 8 9 11 -4 12 -10 5 -23 -14 -27 -12 -43 5 -36 8 3 15 0 15 -7 1 -19 100
-118 112 -111 6 4 8 2 5 -3 -4 -6 2 -18 12 -27 15 -13 20 -14 24 -4 4 11 6 11
6 0 1 -7 6 -10 13 -6 7 5 9 2 6 -7 -3 -8 -9 -22 -13 -31 -6 -14 -2 -18 15 -18
13 0 24 -8 27 -20 6 -22 18 -26 29 -8 5 7 11 5 21 -7 7 -11 13 -14 13 -8 0 6
6 13 14 16 15 6 77 -70 119 -147 15 -28 24 -40 21 -26 -4 14 -7 33 -6 43 0 9
-2 15 -6 13 -4 -2 -6 14 -4 36 3 28 7 36 13 27 6 -10 9 -11 9 -1 0 7 13 12 31
12 26 0 29 -3 24 -21 -5 -16 -3 -20 11 -17 9 2 19 -3 22 -11 3 -8 0 -11 -7 -7
-6 4 -11 0 -11 -10 0 -14 3 -15 12 -6 7 7 20 12 30 12 26 0 23 -38 -7 -83 -14
-20 -23 -37 -21 -37 3 0 28 33 55 73 56 82 93 120 120 122 14 1 -4 -24 -60
-84 -44 -47 -76 -87 -70 -89 6 -2 11 -13 12 -25 0 -21 1 -21 8 -2 5 11 4 23
-1 26 -6 4 0 14 13 23 27 19 52 21 27 3 -9 -7 -21 -29 -26 -48 -5 -18 -14 -33
-21 -32 -14 4 -15 -14 -1 -22 7 -4 7 -12 0 -24 -5 -10 -6 -21 -3 -25 3 -3 1
-6 -4 -6 -6 0 -20 12 -31 27 l-20 28 5 -28 c3 -15 9 -30 14 -32 13 -9 -2 -35
-20 -35 -12 0 -13 2 -3 9 11 7 11 9 -2 14 -8 3 -17 1 -20 -6 -3 -9 -5 -9 -5 1
-2 29 -21 9 -21 -23 l0 -34 60 -7 c72 -8 78 -19 13 -23 -26 -1 -49 -4 -52 -7
-2 -2 -4 -23 -4 -46 0 -24 -2 -34 -4 -23 -3 17 -10 20 -52 17 l-48 -4 -10 64
c-6 35 -7 64 -2 66 15 6 9 45 -14 89 -23 44 -85 100 -122 109 -21 5 -49 59
-50 94 0 40 -178 224 -249 259 -40 20 -46 26 -31 31 16 6 14 10 -16 32 -81 61
-138 71 -509 85 l-145 5 -47 42 c-25 22 -61 52 -79 66 l-32 24 7 -24 c20 -69
35 -129 41 -166 l6 -40 -34 4 c-30 3 -38 -1 -63 -34 -29 -39 -46 -56 -117
-120 -31 -29 -56 -66 -61 -94 -1 -3 -5 -11 -9 -17 -5 -8 -4 -13 2 -13 6 0 11
-7 11 -17 0 -14 2 -14 20 2 20 18 20 17 20 -13 0 -41 13 -41 26 1 5 17 15 31
21 30 7 -2 10 4 7 12 -4 8 -2 15 4 15 10 0 10 -24 0 -50 -13 -31 -15 -58 -7
-71 7 -11 11 -10 23 6 12 16 16 17 20 5 10 -29 9 -45 -3 -75 -14 -33 -9 -81
12 -124 13 -27 13 -28 -7 -25 -12 3 -3 -5 19 -16 22 -11 45 -20 51 -20 7 0 11
-11 10 -24 0 -13 -5 -22 -10 -18 -5 3 -7 -2 -3 -11 5 -14 2 -16 -16 -12 -12 3
-46 9 -74 14 -48 7 -53 6 -53 -11 0 -10 11 -23 25 -28 83 -33 82 -32 60 -40
-11 -4 -33 -3 -50 1 -37 11 -35 11 -35 -4 0 -8 18 -22 40 -32 59 -27 63 -35
34 -83 -20 -33 -31 -42 -52 -42 -20 0 -23 -3 -13 -9 8 -5 11 -16 8 -25 -4 -11
-1 -16 10 -16 9 0 13 -3 9 -7 -4 -4 -19 -7 -34 -8 -33 0 -42 -34 -17 -71 9
-13 13 -30 9 -37 -4 -7 -4 -9 1 -5 4 4 24 -11 43 -33 26 -29 41 -39 56 -35 11
3 25 1 32 -5 9 -7 23 -1 48 22 26 22 43 30 61 27 29 -6 32 0 51 106 7 43 16
81 19 84 3 3 18 -7 33 -21 30 -28 53 -37 32 -12 -6 8 -8 20 -4 26 4 8 3 9 -4
5 -21 -13 -13 14 14 50 32 42 26 44 -17 4 -30 -27 -49 -31 -49 -10 0 16 50 60
68 60 10 0 23 5 30 12 6 6 15 9 18 5 10 -10 -16 -159 -33 -185 -13 -21 -13
-26 2 -48 9 -14 20 -22 25 -19 17 11 11 -7 -7 -22 -17 -14 -17 -14 -1 -9 20 6
102 -34 91 -45 -5 -3 -35 -16 -68 -29 -33 -12 -82 -33 -110 -48 -62 -32 -60
-31 -53 -38 3 -3 23 2 44 12 52 22 205 61 225 57 22 -5 13 -53 -10 -53 -10 0
-17 -8 -17 -21 0 -18 2 -19 12 -4 11 15 13 14 19 -4 6 -20 8 -20 35 -6 37 19
40 19 40 -5 0 -18 -90 -100 -111 -100 -5 0 -10 10 -10 23 -1 20 -2 20 -6 2 -3
-11 -17 -30 -32 -42 l-26 -22 26 -1 c15 0 32 -7 39 -15 7 -8 25 -15 41 -15 20
0 27 -4 23 -14 -4 -10 2 -12 20 -9 15 3 26 1 26 -5 0 -6 10 -12 22 -14 19 -3
10 -12 -50 -51 -40 -26 -76 -47 -81 -47 -5 0 -11 -4 -13 -8 -5 -13 -100 -75
-114 -75 -7 0 -12 -5 -11 -11 1 -6 -3 -10 -10 -9 -7 2 -10 -3 -7 -11 3 -9 -1
-13 -12 -13 -11 1 -20 -6 -22 -17 -4 -19 -32 -54 -32 -40 0 3 -6 1 -14 -5 -12
-10 -29 -71 -20 -71 7 0 73 70 66 71 -4 0 3 4 16 10 14 5 20 13 16 20 -4 7 -3
9 4 5 6 -3 17 2 24 12 21 30 53 43 68 29 12 -10 12 -9 2 5 -17 22 10 47 97 89
73 36 112 44 123 26 6 -9 12 -9 27 0 16 10 18 9 14 -6 -2 -9 -32 -31 -66 -48
-60 -29 -62 -31 -62 -69 0 -22 -3 -47 -8 -56 -5 -11 -4 -18 3 -18 5 0 10 -17
10 -37 0 -31 -6 -42 -30 -58 -40 -27 -40 -64 0 -87 63 -36 31 -44 -160 -40
-79 1 -90 4 -185 51 -55 27 -107 50 -115 51 -30 4 -51 0 -45 -10 11 -17 -1
-11 -29 15 -16 14 -32 22 -39 18 -7 -4 -20 -7 -31 -8 -36 0 -41 -28 -17 -85
26 -59 62 -309 62 -428 0 -55 6 -85 25 -125 25 -57 24 -71 -11 -152 -20 -45
-5 -103 46 -176 64 -92 114 -102 178 -37 34 35 40 58 15 58 -16 0 -16 13 -2
100 7 46 -14 89 -77 149 -57 55 -65 68 -75 119 -14 73 -38 177 -50 223 -24 87
-3 190 40 204 47 15 200 -23 200 -49 0 -14 -36 -71 -77 -126 -24 -31 -33 -53
-33 -82 0 -21 -5 -47 -12 -57 -28 -45 41 -173 105 -193 35 -10 39 -9 65 15 16
15 35 27 44 27 20 0 32 16 19 24 -6 4 -6 18 -1 36 25 89 5 160 -59 205 -23 15
-41 35 -41 45 0 9 18 35 41 57 44 44 44 44 144 11 44 -15 145 -68 145 -77 1
-20 34 -44 64 -46 19 -2 50 -15 68 -28 18 -14 44 -27 58 -28 65 -6 75 9 39 55
l-20 26 22 0 c23 0 178 -46 279 -83 166 -60 217 -77 236 -77 15 0 32 17 58 60
21 33 42 58 47 55 5 -4 -3 -18 -17 -33 -35 -37 -60 -85 -46 -90 6 -2 -5 -24
-24 -48 -29 -39 -34 -54 -34 -98 0 -55 26 -106 54 -106 7 0 23 -9 36 -20 13
-11 24 -20 24 -20 1 0 17 5 36 10 19 6 49 13 65 15 17 3 43 9 60 13 30 8 30 8
-19 21 -47 12 -48 12 -32 34 34 45 76 111 76 118 0 3 -14 9 -30 13 -27 5 -50
30 -38 41 2 2 26 -2 53 -11 28 -8 117 -19 199 -25 83 -5 155 -14 162 -20 6 -5
10 -17 7 -27 -2 -10 21 -59 53 -112 31 -52 62 -115 69 -140 31 -118 86 -195
175 -247 77 -45 142 -102 178 -156 19 -29 52 -71 73 -94 35 -38 39 -48 39 -96
0 -121 -28 -202 -113 -333 -31 -48 -47 -63 -69 -66 -16 -3 -31 -1 -34 3 -2 4
-14 5 -27 2 -24 -5 -69 -12 -130 -17 -28 -3 -37 -1 -33 9 3 8 -4 13 -17 14
-12 0 -73 3 -136 6 -62 2 -128 9 -145 13 -17 5 -40 6 -51 2 -11 -4 -95 -6
-185 -3 -218 5 -228 5 -275 -7 -36 -10 -47 -8 -100 16 -69 32 -95 37 -95 18 0
-8 -11 -14 -26 -14 -14 0 -22 4 -19 10 3 5 -7 12 -22 16 -15 3 -33 7 -40 9 -7
2 -25 0 -41 -6 -20 -7 -49 -6 -93 2 -35 6 -118 13 -183 15 -97 4 -122 2 -136
-11 -12 -11 -30 -13 -71 -9 -111 12 -332 14 -345 3 -8 -6 -48 -8 -111 -4 -54
4 -146 7 -205 7 l-108 1 -1 31 c0 17 -1 82 -1 144 -1 62 -6 112 -11 112 -6 0
-8 35 -5 85 3 47 2 82 -3 79 -5 -3 -9 -11 -9 -19 0 -8 -4 -17 -10 -20 -5 -3
-7 0 -4 9 3 9 -2 17 -15 21 -12 3 -21 11 -21 16 0 14 -28 11 -33 -3 -3 -8 -6
-9 -6 -2 -1 6 -12 9 -25 7 -31 -6 -45 16 -20 34 10 7 24 11 31 9 7 -3 13 1 13
9 0 8 -10 17 -22 20 -21 4 -193 14 -260 14 -16 1 -28 6 -28 11 0 6 -4 8 -10 5
-5 -3 -10 -1 -10 6 0 6 -10 9 -23 7 -20 -4 -23 -1 -19 19 3 16 0 23 -12 23 -9
0 -16 7 -16 15 0 8 -3 15 -8 15 -4 0 -6 18 -4 39 3 30 0 40 -12 43 -11 2 -13
7 -6 18 8 13 11 13 22 -2 7 -9 31 -19 53 -22 31 -4 34 -4 15 3 -23 8 -22 9 13
10 20 1 37 5 37 11 0 5 -6 7 -14 4 -8 -3 -17 -1 -20 5 -4 6 15 10 48 10 31 0
63 4 73 10 15 9 14 10 -11 11 -28 0 -29 1 -10 14 18 14 18 15 -6 25 l-25 10
30 0 c17 0 66 5 109 12 101 16 78 27 -59 29 -55 1 -120 5 -145 9 -44 7 -43 7
35 14 103 10 228 28 239 34 4 3 -6 12 -23 20 -17 9 -28 20 -24 26 4 6 11 4 18
-6 11 -15 14 -15 31 4 l19 21 -43 -4 c-23 -2 -42 0 -42 4 0 5 -10 8 -22 8 -28
0 -20 8 14 12 15 2 30 7 34 11 4 4 23 7 43 7 20 0 68 7 106 15 39 8 88 15 110
16 l40 1 -35 10 c-43 13 -296 -11 -502 -48 -76 -13 -146 -24 -156 -24 -10 0
-31 14 -45 30 -28 31 -79 41 -92 19 -4 -6 -13 -8 -20 -5 -7 2 -16 2 -19 -2
-10 -9 -46 -10 -46 0 0 4 -9 8 -20 8 -13 0 -20 7 -20 20 0 18 -5 20 -38 14
-29 -4 -39 -3 -39 7 0 8 -2 19 -3 24 -7 28 1 37 28 31 19 -5 23 -4 12 3 -8 6
-11 13 -7 17 13 13 -50 32 -126 39 -48 4 -77 3 -81 -4 -4 -5 -13 -8 -21 -4 -9
3 -22 0 -30 -7 -13 -11 -15 -4 -14 51 0 41 3 57 8 44 7 -17 8 -17 14 8 5 18
12 24 22 21 8 -4 15 -1 15 5 0 6 12 11 26 11 16 0 23 4 18 12 -5 8 0 9 17 5
13 -4 33 -7 44 -8 l20 0 -20 -9 c-14 -6 -15 -9 -5 -9 9 -1 20 3 25 8 6 5 89
11 185 13 160 3 178 5 211 26 20 12 44 22 53 22 9 0 16 4 16 9 0 5 10 7 22 3
11 -3 19 -1 16 4 -7 11 17 35 26 27 3 -3 0 -13 -7 -21 -10 -13 -9 -15 4 -10 9
4 36 2 59 -4 40 -10 43 -9 66 17 13 16 24 35 23 44 0 12 -4 10 -16 -7 -16 -23
-43 -30 -43 -12 0 16 51 60 62 54 11 -7 79 66 72 77 -2 4 0 10 6 14 20 12 10
25 -20 25 -18 0 -30 5 -30 13 0 16 -40 55 -41 41 0 -5 -3 -2 -7 7 -11 25 -90
5 -102 -27 -5 -13 -26 -32 -47 -42 -21 -9 -41 -21 -45 -27 -5 -6 -8 -3 -8 6 0
9 -7 22 -16 30 -9 7 -14 22 -11 36 2 13 0 23 -6 23 -5 0 -16 8 -24 18 -8 9
-12 11 -8 5 8 -18 -17 -16 -41 2 -18 13 -18 14 6 8 21 -6 23 -4 13 8 -7 8 -10
24 -7 36 4 14 -2 28 -19 44 -34 32 -41 134 -13 193 10 21 21 56 23 78 6 37 5
38 -23 37 -46 -3 -99 25 -113 60 -10 22 -20 31 -37 31 -13 0 -24 5 -24 11 0
17 27 36 97 69 33 15 65 35 70 42 4 8 16 17 25 21 25 9 19 172 -8 212 -32 48
-96 105 -116 105 -24 0 -51 26 -53 52 -2 24 -25 40 -41 28 -7 -6 -26 -3 -52
10 -23 11 -56 20 -75 20 -19 0 -40 6 -46 14 -10 11 -18 11 -54 -1 -23 -7 -57
-21 -74 -31 l-33 -17 0 -2182 0 -2183 4500 0 4500 0 0 2098 c0 1153 -3 2107
-6 2120 -5 18 -11 21 -28 16 -19 -6 -19 -5 4 14 14 12 20 21 13 22 -6 0 -15
-5 -18 -11 -5 -6 -12 -4 -22 8 -8 10 -12 13 -9 6 4 -6 2 -14 -4 -18 -6 -4 -10
22 -11 72 l-1 78 -16 -37 c-18 -40 -35 -45 -40 -12 -3 16 -1 17 8 4 10 -13 11
-12 6 3 -3 10 -6 21 -6 23 0 2 -4 4 -9 4 -5 0 -12 -10 -14 -22 l-4 -23 -2 23
c0 12 -6 22 -12 22 -5 0 -7 -5 -3 -12 5 -7 3 -8 -7 -2 -17 10 -49 6 -66 -8 -9
-7 -13 -7 -13 1 0 17 -50 61 -69 61 -22 0 -45 39 -43 70 2 14 -6 39 -17 57
-16 25 -33 36 -78 49 -32 9 -64 21 -71 27 -9 7 -16 7 -24 -1 -7 -7 -25 -12
-40 -12 -16 0 -42 -10 -58 -22 -25 -18 -32 -19 -45 -8 -11 9 -19 10 -23 3 -9
-14 -51 2 -59 23 -3 8 4 37 17 64 12 26 20 53 16 58 -3 6 0 13 6 15 7 3 -9 6
-35 6 -40 1 -50 5 -54 21 -5 19 -16 25 -37 21 -4 -1 -14 3 -21 9 -9 8 -14 8
-17 -1 -6 -19 -48 0 -48 22 0 24 -28 25 -37 2 -10 -27 -24 -32 -47 -20 -29 16
-36 28 -36 60 0 20 5 27 20 27 11 0 20 6 20 14 0 8 4 18 10 21 5 3 8 0 5 -7
-3 -8 4 -14 20 -14 23 -2 25 1 25 46 0 30 -6 52 -15 60 -10 9 -15 9 -15 1 0
-6 -5 -11 -11 -11 -5 0 -7 5 -3 11 4 7 0 9 -14 5 -27 -9 -35 16 -16 54 15 29
15 31 -14 58 -23 22 -40 28 -83 30 -29 1 -55 6 -58 11 -9 13 -81 7 -90 -7 -11
-18 -74 -50 -88 -45 -7 3 -13 0 -13 -6 0 -17 -28 -13 -40 7 -10 15 -11 15 -7
-5 5 -25 -25 -38 -53 -23 -11 6 -21 5 -28 -2 -8 -8 -12 -8 -12 -1 0 6 -12 11
-26 11 -37 0 -97 52 -105 92 -4 18 -12 36 -19 40 -8 5 -8 14 -1 31 16 36 43
181 35 188 -3 3 -18 -10 -33 -29 -45 -60 -69 -80 -95 -80 -15 0 -30 8 -36 20
-17 32 -24 143 -12 196 6 27 14 89 17 137 5 65 12 94 24 106 15 15 16 27 10
82 -12 93 -29 308 -29 352 0 20 4 37 8 37 5 0 14 -62 21 -137 18 -213 22 -233
36 -233 7 0 16 7 19 16 8 21 -12 288 -25 338 -11 39 -49 86 -70 86 -14 0 -5
-305 13 -408 12 -73 5 -94 -12 -32 -8 29 -16 40 -27 38 -9 -2 -44 -36 -77 -76
-86 -102 -125 -127 -201 -126 -33 1 -77 9 -99 18 -36 15 -38 18 -34 53 3 21 8
46 12 56 6 12 4 17 -8 17 -13 0 -16 -11 -16 -51 0 -47 -2 -50 -22 -47 -23 3
-23 6 -26 166 -2 137 0 162 12 162 8 0 20 -8 25 -17 12 -20 12 -20 14 25 1 17
-1 32 -6 32 -4 0 -6 3 -5 8 1 4 -4 18 -11 31 -12 22 -10 27 31 68 l43 45 -44
-5 c-34 -4 -48 -2 -57 11 -10 14 -17 14 -75 1 -59 -15 -67 -14 -104 2 -22 10
-56 32 -75 50 -19 17 -75 59 -124 93 -50 33 -110 80 -134 102 -37 36 -42 45
-36 70 9 39 11 40 37 17 35 -32 93 -54 122 -47 21 5 25 12 25 40 0 22 6 37 15
41 20 7 55 -24 55 -48 0 -21 22 -38 28 -21 2 7 8 10 13 6 5 -3 9 -1 9 5 0 6
14 24 31 42 24 25 37 30 61 27 48 -7 94 44 102 114 12 110 8 401 -9 646 l-4
63 49 30 c28 17 50 33 50 37 0 3 -22 36 -50 74 -57 78 -170 268 -170 286 0 7
-4 12 -10 12 -5 0 -10 6 -10 14 0 15 -18 31 -25 24 -2 -2 2 -17 10 -32 8 -15
12 -32 9 -37 -9 -15 -34 -10 -34 7 0 13 -3 14 -14 5 -20 -16 -26 -72 -9 -78
31 -12 6 -55 -53 -89 -10 -6 -21 -24 -22 -40 -2 -16 -8 -35 -14 -41 -7 -9 -7
-18 2 -28 8 -10 9 -15 1 -15 -6 0 -17 -13 -25 -28 -8 -15 -26 -34 -40 -41 -24
-13 -24 -14 -5 -30 18 -15 19 -32 19 -365 1 -191 -1 -351 -4 -354 -10 -9 -6
-72 5 -93 12 -24 3 -75 -15 -82 -7 -3 -24 0 -37 7 -21 10 -25 21 -31 80 -5 50
-12 74 -29 92 -14 15 -24 40 -27 73 -4 46 -2 52 32 85 20 20 36 40 36 45 0 20
-33 70 -48 75 -10 3 -39 31 -66 61 -26 30 -52 55 -58 55 -14 0 -38 26 -31 34
10 10 -6 7 -28 -5 -18 -9 -20 -7 -17 18 2 22 -1 28 -17 29 -40 3 -85 17 -79
25 7 12 -3 11 -27 -1 -18 -10 -19 -23 -19 -166 0 -168 -6 -183 -45 -111 -11
20 -25 37 -31 37 -11 0 -55 52 -87 102 -9 15 -17 42 -18 60 -2 51 -8 65 -29
71 -12 3 -20 14 -20 25 0 12 -9 27 -20 35 -38 27 -43 62 -47 341 l-3 269 -25
29 c-34 40 -36 54 -33 198 l3 124 41 12 c55 16 84 32 84 47 0 7 -32 55 -70
107 -39 52 -81 116 -93 142 -23 50 -37 61 -37 28 0 -11 -4 -20 -10 -20 -5 0
-10 15 -10 34 0 19 -18 78 -41 133 -22 54 -47 117 -55 141 -9 23 -19 42 -24
42 -4 0 -10 -17 -14 -37z m204 -1163 c0 -16 -4 -30 -9 -30 -12 0 -24 37 -16
50 12 20 25 10 25 -20z m-154 -87 c4 -32 8 -87 8 -123 1 -59 -1 -65 -21 -68
-13 -2 -26 4 -32 16 -7 14 -18 18 -35 15 -21 -4 -26 0 -32 21 -3 14 -10 26
-15 26 -12 0 -11 87 1 111 6 10 19 19 30 19 10 0 23 6 27 14 8 13 28 24 50 25
7 1 15 -22 19 -56z m-148 -301 c3 -17 -2 -22 -17 -22 -14 0 -21 6 -21 18 0 38
33 41 38 4z m1422 -61 c0 -43 3 -99 6 -124 6 -43 5 -46 -20 -53 -43 -10 -75 3
-90 39 l-13 32 -13 -27 c-16 -34 -55 -38 -65 -8 -6 19 11 169 20 178 9 9 37
-9 42 -28 8 -31 20 -24 28 17 9 50 7 48 59 51 l46 2 0 -79z m-1462 -236 c2 -2
-6 -22 -18 -46 -17 -32 -24 -39 -31 -28 -6 10 -9 7 -9 -11 0 -14 -8 -38 -19
-55 -26 -42 -96 -115 -109 -115 -19 0 -14 52 8 90 11 19 28 51 36 70 28 60 55
94 65 78 6 -9 9 -6 9 10 0 21 3 23 33 17 17 -4 33 -9 35 -10z m912 -15 c15
-28 2 -124 -15 -110 -9 7 -16 6 -25 -5 -7 -8 -19 -15 -27 -15 -11 0 -13 14
-11 67 3 62 5 68 28 74 38 11 39 10 50 -11z m-260 -76 c0 -8 -5 -12 -10 -9 -6
4 -8 11 -5 16 9 14 15 11 15 -7z m760 -123 c0 -17 -4 -33 -10 -36 -6 -4 -10 8
-10 29 0 20 5 36 10 36 6 0 10 -13 10 -29z m-494 -130 c-6 -41 -9 -44 -34 -37
-25 8 -31 22 -25 62 5 30 6 31 35 20 27 -10 29 -14 24 -45z m-1486 18 c0 -12
-7 -19 -20 -19 -22 0 -29 35 -7 43 18 6 27 -2 27 -24z m1567 -17 c19 -12 44
-90 31 -98 -21 -13 -63 31 -66 69 -3 37 8 46 35 29z m64 -49 c-10 -17 -10 -16
-11 3 0 23 13 41 18 25 2 -6 -1 -18 -7 -28z m-1591 -6 c0 -7 -7 -22 -15 -33
-12 -16 -16 -17 -24 -5 -6 9 -5 21 2 33 14 21 37 24 37 5z m878 -106 c2 -69
-1 -97 -10 -103 -25 -16 -38 -8 -38 23 0 22 -5 32 -20 36 -16 4 -20 14 -20 44
0 45 16 60 29 27 l10 -23 1 25 c1 46 12 71 29 68 13 -3 17 -20 19 -97z m262
79 c0 -11 -4 -20 -10 -20 -5 0 -10 9 -10 20 0 11 5 20 10 20 6 0 10 -9 10 -20z
m-1150 -500 c0 -5 -5 -10 -11 -10 -5 0 -7 5 -4 10 3 6 8 10 11 10 2 0 4 -4 4
-10z m1352 -187 c9 -10 18 -46 21 -81 4 -52 2 -64 -10 -69 -10 -4 -23 3 -35
17 -18 22 -19 22 -32 4 -13 -17 -15 -15 -21 27 -8 55 -4 95 10 92 6 -1 13 -12
17 -25 5 -20 6 -19 7 8 2 47 17 56 43 27z m-1937 -162 c-6 -5 -59 -36 -120
-70 -104 -57 -241 -103 -300 -100 -11 1 12 9 50 19 40 10 129 48 207 89 121
63 191 90 163 62z m2308 -218 c12 -39 15 -43 16 -20 1 37 17 34 25 -4 11 -56
7 -99 -9 -100 -8 -1 -21 -2 -27 -3 -7 -1 -18 7 -25 19 -14 24 -17 155 -4 155
6 0 16 -21 24 -47z m-3008 26 c11 -16 1 -19 -13 -3 -7 8 -8 14 -3 14 5 0 13
-5 16 -11z m51 -69 c0 -11 -3 -20 -7 -20 -4 0 -9 9 -12 20 -3 12 0 20 7 20 6
0 12 -9 12 -20z m824 -5 c0 -14 -6 -23 -65 -85 -31 -33 -87 -45 -145 -32 -49
11 -50 36 -3 60 21 11 60 32 87 46 56 29 126 36 126 11z m-1755 -36 c9 -27 3
-31 -26 -20 -19 8 -20 10 -5 10 15 1 16 4 6 16 -10 12 -10 15 3 15 9 0 19 -9
22 -21z m3693 -14 c10 -8 21 -89 28 -187 l7 -110 -29 4 c-25 3 -30 10 -47 63
-25 80 -34 209 -17 230 11 13 43 13 58 0z m-3664 -40 c3 -8 11 -14 18 -13 7 2
12 -3 10 -11 -1 -7 3 -21 10 -30 12 -14 11 -15 -5 -2 -25 20 -60 71 -49 71 6
0 12 -7 16 -15z m746 -77 c0 -26 -4 -49 -9 -52 -17 -11 -34 24 -28 59 3 21 1
37 -5 42 -8 4 -5 9 8 13 25 10 34 -5 34 -62z m-696 -40 c-3 -4 -12 -8 -20 -8
-8 0 -14 4 -14 8 0 4 9 8 19 8 11 0 17 -4 15 -8z m221 -156 c-3 -10 0 -12 10
-8 16 6 19 -3 7 -19 -15 -21 -32 -15 -32 13 0 16 -13 44 -32 67 l-31 40 41
-40 c25 -23 40 -45 37 -53z m3890 8 c8 -67 -6 -100 -31 -79 -14 12 -20 120 -7
132 19 20 32 3 38 -53z m-3814 -87 c-12 -20 -14 -14 -5 12 4 9 9 14 11 11 3
-2 0 -13 -6 -23z m-92 -167 c-3 -3 -11 5 -18 17 -13 21 -12 21 5 5 10 -10 16
-20 13 -22z m561 -7 c0 11 3 11 15 1 22 -18 13 -22 -31 -14 -31 6 -35 8 -19
14 11 4 23 2 27 -4 5 -7 8 -7 8 3z m-19 -132 c-8 -8 -11 -5 -11 9 0 27 14 41
18 19 2 -9 -1 -22 -7 -28z m1569 -7 c0 -5 -2 -10 -4 -10 -3 0 -8 5 -11 10 -3
6 -1 10 4 10 6 0 11 -4 11 -10z m-1553 -26 c-3 -4 -2 -16 4 -28 10 -20 10 -20
-5 -2 -19 24 -20 36 -4 36 6 0 8 -3 5 -6z m2203 -21 c0 -21 -3 -24 -12 -15 -7
7 -18 12 -25 12 -16 0 -19 -191 -3 -221 6 -10 7 -19 3 -20 -4 0 -19 -1 -33 -3
l-25 -1 4 122 c1 68 0 123 -4 123 -3 0 -15 -5 -26 -10 -16 -9 -19 -7 -19 8 0
29 8 32 77 32 62 0 63 -1 63 -27z m128 -25 c1 -29 6 -66 10 -83 8 -28 9 -26
20 32 6 33 8 70 5 82 -5 18 -1 21 31 21 34 0 35 -1 30 -30 -4 -16 -3 -51 1
-77 6 -40 8 -44 17 -28 6 10 11 45 12 77 1 57 2 58 30 58 24 0 28 -3 22 -22
-3 -13 -15 -74 -27 -136 -20 -104 -23 -113 -42 -110 -18 2 -23 14 -32 63 -11
67 -19 64 -30 -12 -4 -33 -12 -54 -22 -57 -9 -4 -18 -4 -21 -2 -2 3 -15 57
-28 121 -13 63 -28 124 -34 135 -10 18 -8 20 23 20 l33 0 2 -52z m352 32 c17
-17 20 -33 20 -119 0 -96 -1 -100 -27 -120 -30 -24 -58 -20 -86 12 -15 17 -17
34 -14 116 4 83 7 97 27 113 29 23 55 23 80 -2z m348 -17 c4 -39 -12 -43 -37
-11 -11 13 -24 19 -34 15 -14 -5 -17 -22 -17 -106 0 -78 3 -100 15 -105 18 -7
45 19 45 44 0 10 -5 31 -10 46 -13 33 -12 34 22 27 15 -3 25 -10 22 -17 -3 -7
-6 -39 -7 -72 l-2 -59 -45 2 c-67 3 -80 24 -80 133 0 73 3 92 21 114 17 21 27
25 62 23 39 -2 42 -4 45 -34z m180 25 c20 -20 14 -28 -20 -26 -32 3 -33 2 -36
-39 -3 -42 -2 -43 28 -43 25 0 31 -4 28 -17 -2 -11 -14 -19 -31 -21 -26 -3
-28 -6 -25 -45 3 -44 9 -48 57 -32 23 7 23 6 8 -16 -13 -18 -27 -23 -67 -24
-47 -2 -50 0 -44 19 9 27 8 208 -1 235 -6 19 -3 21 42 21 27 0 54 -5 61 -12z
m153 -65 l24 -78 3 49 c2 26 -1 61 -7 77 -10 28 -9 29 24 29 34 0 34 -1 27
-32 -7 -35 -8 -175 -1 -218 3 -21 0 -25 -20 -25 -20 0 -26 8 -37 53 -23 89
-35 97 -31 20 3 -67 3 -68 -23 -68 l-25 0 0 135 c0 130 1 135 21 135 17 0 25
-13 45 -77z m257 52 c11 -23 10 -24 -15 -14 -40 15 -53 5 -53 -41 0 -38 2 -40
30 -40 23 0 30 -4 30 -20 0 -16 -7 -20 -31 -20 -29 0 -30 -1 -27 -42 3 -45 9
-49 58 -33 23 7 24 7 9 -15 -12 -19 -25 -24 -67 -25 -49 -2 -52 -1 -46 19 9
28 9 205 0 234 -7 21 -5 22 47 22 47 0 55 -3 65 -25z m165 14 c24 -11 47 -47
47 -73 0 -7 -9 -25 -21 -40 -22 -27 -20 -40 16 -128 6 -15 2 -18 -25 -18 -24
0 -31 4 -27 14 7 17 -11 87 -25 101 -7 7 -9 -11 -5 -57 2 -38 2 -68 -2 -68 -3
0 -15 3 -26 6 -19 5 -20 12 -17 119 2 71 -1 121 -8 134 -10 20 -8 21 29 21 22
0 51 -5 64 -11z m232 -91 c10 -57 24 -118 32 -137 7 -18 13 -34 13 -35 0 0
-15 -1 -34 -1 -33 0 -34 1 -29 33 5 30 4 32 -22 32 -25 0 -27 -3 -22 -29 6
-27 3 -30 -24 -36 -34 -8 -48 0 -32 16 7 7 22 67 35 135 21 112 25 124 44 124
18 0 23 -11 39 -102z m170 85 c-10 -24 -17 -172 -10 -202 5 -21 10 -23 46 -18
33 4 39 3 35 -10 -3 -8 -6 -18 -6 -22 0 -7 -43 -8 -107 -3 -20 2 -21 5 -12 31
12 33 8 196 -5 224 -7 15 -3 17 29 17 31 0 36 -3 30 -17z m255 -24 c0 -46 -7
-48 -35 -12 -13 15 -27 23 -33 19 -17 -10 -16 -86 2 -86 7 0 25 -9 40 -21 20
-16 26 -29 26 -58 0 -46 -22 -68 -72 -72 -45 -4 -63 11 -54 45 8 31 32 34 39
5 8 -31 41 -21 45 14 4 32 -13 57 -38 57 -26 0 -41 23 -43 69 -2 56 22 80 79
79 l44 -1 0 -38z m440 5 c0 -2 -7 -4 -15 -4 -8 0 -15 4 -15 10 0 5 7 7 15 4 8
-4 15 -8 15 -10z m-4776 -86 c21 -17 21 -17 1 -19 -17 -1 -16 -2 5 -9 24 -8
23 -8 -8 -9 -22 -1 -35 4 -39 16 -4 9 -2 18 4 20 6 2 9 14 7 26 -2 13 -1 16 2
7 4 -8 17 -22 28 -32z m413 -406 c96 -122 108 -133 132 -128 25 6 25 5 -4 -11
-17 -9 -55 -17 -86 -18 -31 -1 -61 -5 -68 -9 -7 -4 -23 0 -37 8 -32 22 -92 87
-99 109 -4 9 -15 17 -26 17 -24 0 -18 -13 53 -113 34 -48 44 -67 31 -64 -10 3
-38 9 -63 12 -61 10 -63 12 -40 42 11 14 20 33 20 42 0 11 -9 5 -26 -16 -36
-46 -55 -44 -42 5 6 20 15 40 22 44 7 5 5 8 -6 8 -10 0 -16 6 -14 13 3 6 7 25
11 41 5 23 8 27 16 15 7 -12 9 -11 9 4 0 10 -7 17 -17 17 -16 0 -18 14 -19
154 l0 154 73 -97 c40 -53 121 -156 180 -229z m-315 203 c10 -37 11 -54 4
-125 -2 -14 -4 -35 -4 -47 -1 -13 -7 -23 -12 -23 -6 0 -10 33 -9 83 1 45 -2
105 -6 132 -7 58 7 47 27 -20z m-392 -15 c16 0 32 -5 36 -12 5 -8 2 -9 -9 -5
-9 3 -19 3 -21 -2 -6 -9 -66 -2 -66 8 0 14 25 32 28 21 2 -5 17 -10 32 -10z
m2320 -9 c0 -11 5 -42 12 -70 14 -61 25 -51 34 32 6 49 9 57 28 57 20 0 21 -5
21 -105 0 -101 -1 -105 -22 -105 -19 0 -21 4 -18 38 l5 37 -11 -37 c-14 -50
-34 -48 -47 5 l-11 42 3 -42 c4 -38 2 -43 -17 -43 -21 0 -22 4 -22 105 0 102
1 105 23 105 15 0 22 -6 22 -19z m238 -28 c6 -27 14 -66 18 -88 3 -22 11 -48
16 -57 7 -15 4 -18 -17 -18 -20 0 -25 5 -25 26 0 19 -4 25 -17 22 -12 -2 -17
-11 -15 -26 3 -18 -2 -22 -22 -22 -22 0 -24 3 -17 23 4 12 14 59 21 105 11 66
17 82 31 82 13 0 20 -13 27 -47z m150 -15 c19 -59 20 -61 21 -26 1 20 -3 48
-9 62 -9 24 -7 26 18 26 l27 0 0 -105 c0 -58 -3 -106 -7 -106 -26 -6 -32 1
-49 51 l-18 55 2 -53 c2 -46 0 -52 -18 -52 -19 0 -20 7 -20 105 0 91 2 105 17
105 11 0 22 -19 36 -62z m157 52 c-8 -12 5 -60 16 -60 5 0 9 16 9 35 0 31 3
35 25 35 14 0 25 -1 25 -3 0 -2 -10 -23 -22 -48 -16 -30 -23 -62 -23 -101 0
-52 -2 -58 -21 -58 -19 0 -21 4 -17 48 4 36 -1 61 -20 105 l-26 57 30 0 c17 0
28 -4 24 -10z m333 -22 c3 -29 -15 -39 -24 -13 -4 8 -15 15 -25 15 -14 0 -19
-7 -19 -29 0 -23 6 -31 30 -39 34 -12 48 -51 31 -88 -9 -20 -18 -24 -51 -24
-36 0 -40 2 -40 25 0 29 15 33 28 8 14 -23 42 -9 42 22 0 19 -7 28 -27 36 -33
12 -43 26 -43 61 0 37 26 60 64 56 25 -2 32 -8 34 -30z m136 17 c4 -12 -1 -15
-22 -13 -24 3 -27 -1 -30 -29 -3 -30 -1 -33 22 -33 32 0 35 -27 4 -32 -18 -2
-23 -10 -23 -33 0 -27 3 -30 28 -28 18 1 27 -2 24 -10 -2 -7 -22 -13 -45 -15
l-42 -3 1 95 c1 52 -2 99 -6 105 -4 7 9 11 38 11 31 0 47 -5 51 -15z m97 -81
l-3 -97 35 6 c28 4 35 3 30 -9 -3 -9 -21 -14 -52 -14 l-46 0 0 105 c0 98 1
105 20 105 19 0 20 -5 16 -96z m159 77 c-5 -11 -10 -54 -10 -97 l0 -77 36 6
c25 4 34 2 31 -6 -2 -7 -26 -13 -53 -15 l-49 -3 0 106 0 105 28 0 c24 0 26 -2
17 -19z m200 -11 c0 -33 -14 -39 -28 -13 -6 10 -16 14 -26 10 -26 -10 -15 -48
19 -67 22 -12 31 -25 33 -49 4 -43 -13 -61 -59 -61 -35 0 -39 3 -39 25 0 29
17 33 35 8 15 -21 35 -9 35 22 0 16 -11 29 -35 44 -26 15 -35 27 -35 47 0 38
27 64 67 64 30 0 33 -3 33 -30z m98 -17 c3 -76 22 -75 25 1 2 41 5 46 25 46
20 0 22 -5 22 -49 0 -28 4 -52 9 -55 11 -7 23 67 15 88 -5 12 0 16 21 16 19 0
26 -4 22 -14 -3 -8 -13 -55 -22 -105 -14 -77 -20 -91 -36 -91 -14 0 -19 7 -20
28 0 15 -4 36 -8 47 -6 16 -10 10 -15 -28 -6 -36 -11 -47 -25 -47 -15 0 -21
14 -31 78 -7 42 -18 89 -25 105 -13 26 -12 27 14 27 25 0 27 -3 29 -47z m274
30 c14 -13 18 -31 18 -85 0 -84 -11 -108 -48 -108 -44 0 -52 16 -52 107 0 68
3 84 18 92 25 15 43 13 64 -6z m150 0 c22 -19 24 -66 3 -83 -12 -10 -12 -18 4
-61 l19 -49 -24 0 c-18 0 -24 5 -24 23 0 34 -11 67 -23 67 -6 0 -7 -17 -4 -45
6 -42 5 -45 -16 -45 -21 0 -22 3 -22 105 l0 105 34 0 c19 0 43 -7 53 -17z
m162 -5 c18 -26 22 -138 6 -169 -8 -14 -21 -19 -55 -19 -44 0 -44 1 -35 26 6
14 10 49 10 79 0 30 -4 65 -10 79 -9 25 -8 26 30 26 29 0 43 -6 54 -22z m156
-8 c0 -33 -14 -39 -28 -13 -6 10 -16 14 -26 10 -26 -10 -15 -48 19 -67 22 -12
31 -25 33 -49 4 -43 -13 -61 -59 -61 -35 0 -39 3 -39 25 0 29 17 33 35 8 7 -9
17 -13 23 -9 19 11 14 56 -5 63 -33 11 -53 36 -53 64 0 37 24 59 66 59 31 0
34 -2 34 -30z m-4886 -60 c7 0 13 -6 13 -12 0 -7 4 -21 8 -30 4 -11 3 -18 -4
-18 -6 0 -13 11 -17 25 -9 38 -36 33 -30 -6 5 -31 -7 -30 -17 1 -2 8 -3 4 -1
-10 2 -19 -4 -28 -24 -37 -27 -13 -27 -13 -5 6 12 10 18 23 14 30 -9 14 -41
-28 -41 -54 0 -8 -5 -15 -11 -15 -6 0 -9 -9 -6 -20 3 -11 1 -18 -3 -15 -5 3
-10 -18 -12 -46 -3 -53 -21 -76 -32 -41 -7 21 32 132 67 193 23 40 52 61 75
53 8 -2 19 -4 26 -4z m5973 -67 c-3 -10 -5 -4 -5 12 0 17 2 24 5 18 2 -7 2
-21 0 -30z m-5759 21 c16 -5 22 -13 21 -33 0 -14 -3 -20 -6 -13 -2 6 -9 10
-14 6 -5 -3 -9 -1 -9 4 0 6 -9 8 -20 5 -22 -6 -23 -3 -14 21 7 18 9 18 42 10z
m5742 -36 c0 -5 -4 -8 -10 -8 -5 0 -10 10 -10 23 0 18 2 19 10 7 5 -8 10 -18
10 -22z m117 -8 c-1 -11 -5 -20 -9 -20 -10 0 -10 4 -2 24 8 22 13 20 11 -4z
m-117 -20 c0 -5 -7 -7 -15 -4 -8 4 -15 8 -15 10 0 2 7 4 15 4 8 0 15 -4 15
-10z m100 -24 c0 -2 -6 -9 -14 -15 -11 -9 -16 -9 -22 0 -4 8 -3 9 4 5 7 -4 12
-2 12 3 0 6 5 11 10 11 6 0 10 -2 10 -4z m-5425 -26 c13 -5 14 -9 5 -9 -8 0
-24 4 -35 9 -13 5 -14 9 -5 9 8 0 24 -4 35 -9z m1969 -6 c9 -3 16 -11 16 -18
0 -27 63 -225 71 -221 11 7 2 196 -11 209 -20 20 -9 26 44 26 l55 0 -15 -35
c-20 -49 -20 -312 1 -361 16 -40 8 -48 -40 -42 -25 3 -29 11 -62 118 -19 63
-38 121 -43 130 -17 27 -12 -181 4 -212 l15 -28 -54 0 c-53 0 -54 1 -45 24 12
34 21 306 11 342 -5 16 -12 37 -16 46 -5 13 0 17 22 21 15 2 29 5 30 6 1 0 8
-2 17 -5z m437 -33 l29 -29 0 -151 c0 -167 -6 -192 -55 -215 -41 -20 -96 -6
-125 31 -18 23 -20 40 -20 163 0 75 5 150 10 166 23 66 111 84 161 35z m519
11 c40 -20 60 -53 60 -100 0 -38 -22 -87 -46 -100 -14 -8 -13 -18 11 -93 15
-46 32 -88 36 -93 18 -20 8 -26 -40 -26 l-49 0 5 38 c7 51 -24 154 -45 150
-13 -2 -15 -16 -13 -72 1 -37 7 -79 13 -92 15 -32 8 -37 -47 -29 -38 6 -45 10
-38 24 10 21 10 359 0 389 -8 21 -6 22 55 22 40 0 76 -6 98 -18z m280 14 c0
-2 -7 -20 -15 -39 -22 -53 -21 -309 1 -331 8 -9 22 -16 29 -16 7 0 21 7 29 16
22 22 23 288 2 339 l-15 35 54 0 55 0 -11 -27 c-13 -31 -16 -78 -18 -241 -1
-109 -2 -114 -27 -137 -36 -34 -93 -34 -131 -1 l-28 24 -5 171 c-3 117 -9 174
-17 183 -23 22 -14 28 42 28 30 0 55 -2 55 -4z m350 -3 c-1 -5 -7 -19 -15 -33
-11 -19 -14 -66 -15 -189 l0 -164 48 6 c26 3 55 9 65 12 13 5 17 2 17 -13 0
-48 -6 -50 -107 -47 -52 2 -97 6 -100 9 -2 2 0 13 6 24 14 27 16 344 2 371
-17 30 -15 31 44 31 30 0 55 -3 55 -7z m383 -22 c22 -37 21 -44 0 -33 -35 18
-81 22 -93 7 -6 -7 -10 -38 -8 -72 l3 -58 43 0 c41 0 42 -1 42 -34 0 -33 -1
-33 -34 -28 -46 7 -56 -7 -56 -75 0 -69 11 -77 74 -60 22 6 42 9 45 7 2 -2 -6
-16 -17 -32 -19 -27 -23 -28 -98 -27 -64 0 -78 3 -75 15 23 84 25 345 3 386
-7 12 -12 24 -12 27 0 3 37 6 83 6 81 0 83 -1 100 -29z m307 -17 c0 -24 1 -47
3 -51 1 -5 -7 -9 -19 -11 -16 -2 -25 5 -34 28 -11 27 -17 31 -44 28 -29 -3
-31 -7 -37 -48 -9 -64 3 -87 49 -99 57 -16 81 -47 83 -107 2 -59 -23 -112 -58
-121 -13 -3 -39 -3 -58 -1 -19 2 -35 1 -35 -3 0 -4 -9 -5 -20 -2 -17 5 -20 14
-20 59 0 45 3 54 18 54 9 0 24 -15 32 -33 28 -61 90 -35 90 38 0 43 -23 72
-64 79 -53 10 -76 46 -76 118 0 52 4 63 29 88 26 27 35 29 95 28 l66 -1 0 -43z
m-4754 -27 c1 -10 -2 -14 -8 -11 -6 4 -8 2 -5 -3 4 -6 16 -13 27 -16 17 -4 19
-3 10 8 -8 10 -8 15 1 21 7 4 9 3 5 -4 -3 -6 13 -26 36 -46 49 -43 48 -44 -19
-12 -27 14 -66 28 -86 31 -41 8 -43 11 -22 35 20 22 57 20 61 -3z m6041 -21
c-5 -15 -24 -18 -24 -3 0 8 6 14 14 14 7 0 12 -5 10 -11z m-6796 -102 c10 -13
10 -17 -2 -25 -16 -10 -49 -12 -49 -3 0 12 21 44 29 44 5 0 14 -7 22 -16z
m-86 -64 c-2 -8 -6 -30 -7 -47 -3 -45 -28 -43 -28 1 0 19 5 47 11 63 8 22 12
24 19 13 5 -8 8 -22 5 -30z m130 0 c3 -5 -1 -10 -10 -10 -9 0 -13 5 -10 10 3
6 8 10 10 10 2 0 7 -4 10 -10z m545 -27 c-44 -50 -56 -84 -64 -178 -6 -85 -1
-101 39 -123 19 -11 19 -11 -2 -12 -38 0 -55 49 -49 139 3 42 9 89 15 103 9
25 77 108 88 108 3 0 -9 -17 -27 -37z m-586 -2 c6 -9 -36 -41 -54 -41 -14 0
-13 37 3 43 20 9 45 8 51 -2z m-168 -44 c1 -11 0 -16 -3 -14 -3 3 -16 1 -30
-4 -18 -7 -30 -6 -40 3 -12 10 -11 14 9 25 31 17 61 12 64 -10z m838 -516 c-3
-3 8 -11 23 -18 26 -12 26 -12 3 -7 -32 8 -50 23 -50 41 0 11 3 11 14 1 8 -7
12 -15 10 -17z m2122 -163 c43 -59 54 -88 34 -88 -5 0 -22 24 -36 53 -15 28
-36 65 -47 81 -39 55 5 14 49 -46z m-4638 -502 c-7 -8 -15 -12 -17 -11 -5 6
10 25 20 25 5 0 4 -6 -3 -14z m3701 -249 c25 -18 93 -57 151 -86 220 -111 268
-151 290 -246 4 -16 19 -82 34 -145 14 -63 36 -149 47 -190 25 -89 18 -134
-34 -201 l-32 -42 -138 -2 c-76 -1 -140 2 -143 7 -3 5 -30 6 -60 2 -36 -4 -59
-2 -68 5 -10 8 -16 9 -21 1 -4 -7 -12 -7 -26 0 -15 9 -21 7 -25 -5 -12 -30
-24 -14 -20 25 2 22 17 62 33 88 52 83 111 208 118 248 4 21 16 65 26 96 36
109 29 137 -54 201 -20 15 -48 42 -62 61 -43 56 -94 216 -69 216 4 0 27 -15
53 -33z m2507 -328 c-12 -53 -14 -58 -15 -28 -1 35 17 104 25 96 2 -2 -2 -33
-10 -68z m141 9 c-3 -8 -6 -5 -6 6 -1 11 2 17 5 13 3 -3 4 -12 1 -19z m-61
-46 c-11 -10 -14 3 -8 33 l7 30 3 -28 c2 -16 1 -31 -2 -35z m-5596 28 c0 -11
-14 -11 -50 0 -22 7 -21 8 13 9 20 1 37 -3 37 -9z m5 -60 c3 -5 1 -10 -4 -10
-6 0 -11 5 -11 10 0 6 2 10 4 10 3 0 8 -4 11 -10z m5615 -20 c0 -5 -4 -10 -10
-10 -5 0 -10 5 -10 10 0 6 5 10 10 10 6 0 10 -4 10 -10z m-5727 -181 c4 -16 3
-18 -8 -9 -10 8 -14 7 -17 -2 -3 -7 -5 2 -6 20 -1 27 2 31 13 22 7 -6 15 -20
18 -31z m117 -61 c0 -5 -4 -8 -10 -8 -5 0 -10 10 -10 23 0 18 2 19 10 7 5 -8
10 -18 10 -22z m56 -88 c2 -55 1 -59 -7 -30 -5 19 -6 46 -3 58 3 15 1 21 -6
17 -6 -4 -10 4 -10 19 0 13 -3 33 -6 43 -3 10 2 5 12 -12 10 -18 18 -56 20
-95z m-39 28 c-3 -8 -6 -5 -6 6 -1 11 2 17 5 13 3 -3 4 -12 1 -19z m10 -50
c-3 -8 -6 -5 -6 6 -1 11 2 17 5 13 3 -3 4 -12 1 -19z m243 -67 c0 -5 8 -12 18
-14 9 -3 5 -4 -10 -4 -25 1 -42 27 -18 27 6 0 10 -4 10 -9z m1275 -41 c3 -5 2
-10 -4 -10 -5 0 -13 5 -16 10 -3 6 -2 10 4 10 5 0 13 -4 16 -10z m-2180 -750
c7 0 27 -12 44 -26 28 -24 34 -25 61 -14 16 7 35 18 41 26 26 31 129 1 163
-48 23 -32 20 -100 -4 -131 l-20 -26 24 -23 c78 -72 52 -176 -62 -246 l-49
-30 -164 -1 -164 -2 50 44 50 44 2 168 c3 189 0 200 -54 190 -22 -4 -33 -2
-33 6 0 17 73 79 88 74 8 -3 20 -5 27 -5z m7088 -14 c1 -6 -14 -14 -33 -19
-19 -5 -41 -13 -47 -19 -18 -15 -18 -399 -1 -416 7 -7 44 -12 94 -12 74 0 86
3 113 25 16 14 33 35 36 45 7 23 25 27 25 5 0 -7 -5 -37 -11 -64 l-11 -51
-199 2 c-109 1 -199 6 -199 11 0 4 14 13 31 19 17 6 34 21 40 35 10 27 12 354
3 391 -4 13 -17 25 -33 28 -34 9 -42 14 -37 23 7 11 226 8 229 -3z m-6495
-123 c12 -3 22 -9 22 -14 0 -5 10 -9 23 -9 13 0 32 -6 43 -14 15 -12 17 -17 7
-27 -15 -15 -19 -269 -5 -269 4 0 13 5 18 10 8 8 15 6 23 -4 10 -12 6 -19 -26
-40 -48 -33 -66 -33 -90 0 l-19 26 -51 -28 -51 -29 -27 25 c-81 76 -94 212
-29 312 27 43 90 80 119 72 11 -3 30 -8 43 -11z m249 -5 c13 -12 23 -28 23
-35 0 -10 21 -3 69 23 l69 37 38 -29 c22 -15 41 -29 43 -31 2 -1 -2 -9 -9 -17
-13 -17 -20 -249 -8 -269 5 -8 11 -7 21 1 11 10 17 9 26 -2 10 -12 5 -19 -28
-40 -50 -32 -62 -32 -89 -3 -19 20 -21 34 -21 122 0 109 -6 164 -19 177 -11
11 -58 0 -71 -16 -6 -7 -12 -75 -13 -152 l-3 -139 -42 -3 -42 -3 -3 158 -3
158 -27 3 c-37 4 -35 14 10 51 45 37 49 37 79 9z m391 6 c12 -8 22 -22 22 -30
0 -22 24 -17 80 16 28 17 55 30 59 30 4 0 27 -14 51 -31 39 -28 42 -33 27 -44
-14 -10 -17 -32 -17 -144 0 -72 4 -131 8 -131 4 0 13 5 20 12 9 9 15 9 24 0
14 -14 -3 -37 -43 -58 -38 -19 -46 -18 -74 11 -24 23 -25 29 -25 160 0 153 -4
161 -66 132 -38 -19 -36 -8 -34 -189 l1 -118 -44 0 -44 0 -1 128 c0 70 -1 142
-1 161 -1 28 -4 33 -21 28 -34 -9 -34 13 1 49 37 38 45 40 77 18z m531 -63
c23 -44 41 -83 41 -86 0 -4 -38 -24 -85 -46 -93 -44 -101 -56 -64 -103 24 -31
72 -35 107 -10 13 9 26 14 29 10 12 -12 -7 -33 -61 -65 -65 -39 -87 -37 -139
12 -63 59 -85 184 -46 264 23 48 57 76 109 91 63 18 66 16 109 -67z m163 54
l25 -25 23 25 c31 33 54 31 81 -6 26 -37 18 -58 -25 -74 -23 -8 -30 -6 -37 8
-21 36 -29 2 -29 -113 0 -98 3 -119 16 -124 8 -3 24 -1 34 4 25 13 30 13 30
-5 0 -8 -21 -28 -46 -46 l-47 -32 -53 26 c-30 15 -54 30 -54 34 0 5 11 21 25
36 14 15 21 27 16 27 -6 0 -11 42 -13 103 l-3 102 -27 0 c-14 0 -29 3 -32 6
-7 7 69 79 83 79 4 0 19 -11 33 -25z m356 0 c26 -14 54 -25 64 -25 9 0 20 -5
23 -10 8 -13 -14 -42 -26 -34 -5 3 -9 0 -9 -6 0 -22 -29 -20 -85 6 -56 25 -59
25 -72 8 -21 -28 5 -55 80 -84 87 -33 107 -53 107 -103 0 -36 -6 -47 -50 -89
-27 -26 -59 -48 -69 -48 -10 0 -43 11 -73 25 -29 14 -61 25 -70 25 -26 0 -21
22 11 47 l29 23 70 -29 c74 -31 92 -28 92 15 0 25 -25 44 -95 68 -110 40 -139
98 -82 163 30 35 83 73 100 73 4 0 29 -11 55 -25z m5892 -25 c0 -30 1 -30 53
-30 58 0 68 -4 60 -26 -3 -10 -22 -14 -59 -14 l-54 0 0 -103 c0 -91 3 -106 20
-122 17 -16 41 -17 75 -4 23 9 18 -15 -6 -33 -36 -27 -95 -26 -123 1 -19 19
-21 35 -24 140 -3 112 -5 119 -25 125 -21 5 -19 9 23 50 25 25 48 45 53 45 4
1 7 -12 7 -29z m-626 -34 c18 -8 46 -31 62 -51 52 -69 34 -184 -37 -238 -63
-46 -165 -38 -219 18 -122 126 30 340 194 271z m404 -13 c15 -11 38 -35 50
-54 49 -71 12 -192 -70 -235 -43 -22 -119 -21 -159 2 -55 33 -74 68 -74 139 0
55 4 68 31 102 43 54 88 75 147 70 27 -2 60 -13 75 -24z"/>
<path d="M6430 7289 c0 -11 5 -17 10 -14 6 3 10 13 10 21 0 8 -4 14 -10 14 -5
0 -10 -9 -10 -21z"/>
<path d="M5861 4766 c-8 -9 -11 -45 -9 -103 3 -83 4 -88 26 -91 23 -3 23 -3
20 99 -3 102 -12 125 -37 95z"/>
<path d="M6978 4735 c-2 -36 0 -45 12 -45 39 0 52 46 22 73 -27 24 -30 22 -34
-28z"/>
<path d="M7211 4683 c-1 -12 -4 -28 -7 -37 -4 -11 -1 -16 10 -16 17 0 19 11 6
50 -7 23 -8 23 -9 3z"/>
<path d="M5578 4370 c-7 -24 -3 -38 8 -28 3 4 4 17 2 30 l-3 23 -7 -25z"/>
<path d="M7162 4373 c2 -61 6 -78 18 -78 12 0 15 15 15 75 0 64 -3 75 -18 78
-16 3 -18 -4 -15 -75z"/>
<path d="M7310 4420 c0 -38 2 -40 20 -30 11 6 20 19 20 30 0 11 -9 24 -20 30
-18 10 -20 8 -20 -30z"/>
<path d="M7480 4375 c0 -77 2 -86 15 -75 10 9 15 32 15 75 0 43 -5 66 -15 75
-13 11 -15 2 -15 -75z"/>
<path d="M5731 4157 c-8 -10 -11 -59 -9 -162 3 -128 5 -149 21 -159 12 -8 22
-8 35 0 15 10 17 30 17 170 l0 159 -26 3 c-14 2 -31 -3 -38 -11z"/>
<path d="M6269 4171 c0 -3 -1 -37 -1 -76 1 -67 2 -70 24 -67 53 6 82 72 49
114 -19 23 -70 44 -72 29z"/>
<path d="M2876 4151 c-11 -4 -15 -10 -10 -13 5 -4 18 0 29 8 20 15 12 17 -19
5z"/>
<path d="M525 760 c-38 -8 -74 -30 -77 -49 -2 -7 -1 -36 0 -62 l4 -49 46 0
c54 0 107 27 117 60 9 28 -11 75 -39 93 -13 8 -32 11 -51 7z"/>
<path d="M450 493 c0 -48 -5 -72 -17 -85 -15 -17 -12 -18 86 -18 100 0 102 0
111 26 32 84 -18 144 -122 144 l-58 0 0 -67z"/>
<path d="M881 599 c-12 -34 -15 -149 -5 -187 l7 -23 22 21 c19 18 27 20 43 11
30 -16 31 -16 25 47 -3 31 -1 74 5 94 l10 37 -46 15 c-25 9 -47 16 -48 16 -1
0 -7 -14 -13 -31z"/>
<path d="M2012 625 c-15 -33 -16 -125 -1 -125 6 0 28 9 49 21 l37 21 -29 54
c-16 30 -33 54 -37 54 -4 0 -13 -11 -19 -25z"/>
<path d="M7791 584 c-42 -53 -36 -164 13 -221 31 -36 95 -39 128 -6 46 46 30
199 -25 238 -35 25 -92 19 -116 -11z"/>
<path d="M8192 603 c-39 -16 -57 -145 -27 -203 18 -35 61 -70 86 -70 31 0 66
21 78 47 16 35 14 139 -4 173 -26 50 -83 73 -133 53z"/>
<path d="M5122 8634 c-1 -14 2 -33 8 -42 9 -16 9 -16 10 -1 0 9 7 22 15 29 22
19 18 40 -8 40 -17 0 -23 -6 -25 -26z"/>
<path d="M7047 7963 c7 -17 18 -16 32 1 10 11 7 14 -12 12 -15 0 -23 -6 -20
-13z"/>
<path d="M630 7800 c0 -5 5 -10 10 -10 6 0 10 5 10 10 0 6 -4 10 -10 10 -5 0
-10 -4 -10 -10z"/>
<path d="M853 7653 c-1 -16 -3 -39 -5 -53 -2 -19 1 -24 15 -22 9 1 25 3 34 5
26 3 29 -33 4 -40 -12 -3 -21 -9 -21 -13 0 -15 57 -31 85 -24 25 6 24 3 -19
-36 -25 -23 -43 -47 -39 -53 3 -5 1 -7 -5 -3 -11 6 -42 -19 -42 -35 0 -12 16
-11 43 2 18 8 17 5 -5 -15 -16 -14 -36 -29 -45 -35 -10 -5 -14 -13 -10 -17 11
-11 121 68 126 91 3 20 3 20 -20 0 l-24 -20 19 22 c23 28 27 25 61 -35 63
-109 157 -248 210 -308 60 -68 272 -360 388 -534 62 -92 139 -197 171 -232 9
-10 30 -18 46 -18 25 0 30 -4 30 -25 0 -14 4 -25 10 -25 5 0 7 -6 4 -14 -5
-14 98 -177 134 -213 30 -29 78 -98 62 -88 -8 5 2 -8 23 -30 21 -21 35 -45 33
-52 -3 -7 5 -20 18 -30 12 -10 24 -22 27 -28 2 -5 7 -9 11 -8 4 2 4 -5 1 -14
-4 -11 -3 -14 5 -9 7 4 12 2 12 -3 0 -6 9 -11 20 -11 11 0 20 2 20 5 0 11
-100 154 -112 162 -16 10 -182 256 -226 334 l-33 58 38 -16 c21 -8 58 -26 84
-38 118 -60 475 -159 724 -201 87 -14 115 -15 214 -4 62 6 132 18 154 26 86
30 211 145 270 247 l39 66 36 -20 c21 -11 60 -45 88 -76 45 -49 56 -56 103
-64 75 -12 150 5 255 57 49 24 95 44 103 44 7 0 13 4 13 9 0 4 -28 11 -63 13
-37 3 -86 16 -119 31 -32 15 -104 42 -160 61 -144 49 -202 72 -205 83 -5 14
133 114 170 122 38 9 115 -8 179 -39 23 -11 45 -20 50 -20 14 0 9 40 -12 89
-18 40 -33 56 -100 99 -44 29 -84 52 -89 52 -18 0 -71 37 -64 44 4 4 0 4 -10
0 -11 -4 -19 0 -23 9 -10 28 -87 50 -156 45 -61 -3 -80 -11 -186 -67 -40 -22
-47 -23 -140 -13 -53 5 -99 9 -100 7 -2 -2 10 -11 28 -20 18 -9 29 -19 26 -22
-3 -3 -11 -1 -18 4 -7 6 -53 25 -101 43 -61 23 -135 64 -243 136 -85 57 -152
99 -149 93 4 -5 -24 13 -60 41 -36 28 -78 56 -93 64 -54 28 -149 54 -222 61
-365 34 -581 69 -835 134 -133 35 -265 79 -265 90 0 4 14 17 30 29 55 41 30
72 -40 47 -39 -14 -40 -14 -57 16 -9 16 -20 29 -24 29 -4 0 -13 16 -19 35 -11
34 -34 65 -48 65 -4 0 -8 -12 -9 -27z m1121 -564 c89 -45 91 -47 62 -78 -30
-33 -69 -109 -61 -121 13 -22 36 -8 57 35 16 33 30 48 55 56 18 6 38 7 45 2 7
-4 51 -8 98 -8 72 -1 100 -6 184 -38 55 -20 109 -37 120 -37 26 0 66 -38 66
-64 0 -12 7 -30 15 -40 19 -25 19 -70 0 -131 -15 -51 -14 -62 4 -51 13 9 41
101 41 137 0 38 10 41 64 23 65 -22 89 -56 83 -117 -4 -46 -28 -87 -52 -87 -8
0 -12 -21 -11 -65 1 -58 -2 -67 -27 -92 -24 -24 -35 -28 -85 -28 -71 1 -99 10
-83 28 20 25 61 146 51 152 -6 3 -14 -4 -19 -17 -41 -99 -52 -118 -78 -134
-15 -10 -43 -31 -61 -46 -39 -33 -64 -35 -153 -9 -133 38 -260 126 -276 191
-3 14 -21 45 -40 69 -39 52 -43 94 -13 160 19 42 19 61 -1 61 -13 0 -69 -119
-69 -147 0 -13 -2 -23 -5 -23 -18 0 -133 46 -149 59 -46 40 -37 112 21 170 31
31 33 37 23 61 -26 63 36 160 102 160 17 0 58 -14 92 -31z m1636 -680 c14 -25
-10 -26 -33 -1 -15 17 -15 18 3 19 11 1 25 -7 30 -18z m-1469 -596 c13 -16 12
-17 -3 -4 -10 7 -18 15 -18 17 0 8 8 3 21 -13z"/>
<path d="M1863 7080 c-12 -5 -29 -23 -38 -40 -29 -57 -1 -108 68 -125 24 -6
28 -2 56 60 17 37 31 71 31 75 0 8 -74 41 -88 39 -4 0 -17 -4 -29 -9z"/>
<path d="M2092 6899 c-12 -22 -22 -48 -22 -57 1 -29 249 -170 273 -155 5 3 7
27 5 54 l-5 49 32 -20 c18 -11 40 -20 49 -20 21 0 20 -6 -4 -37 -25 -32 -26
-60 -2 -67 54 -16 144 -28 151 -20 14 16 31 76 31 111 l0 34 -34 -35 c-24 -26
-42 -36 -65 -36 -26 0 -31 4 -31 24 0 30 33 72 72 92 25 13 28 18 17 29 -8 7
-36 18 -64 24 -27 7 -83 26 -123 42 -74 29 -112 36 -112 20 0 -5 7 -15 17 -22
29 -25 44 -74 32 -108 -12 -35 -19 -37 -59 -16 -35 18 -80 91 -80 128 0 23 -4
27 -28 27 -23 0 -33 -8 -50 -41z"/>
<path d="M2210 6904 c0 -16 33 -73 46 -78 21 -8 18 47 -4 67 -18 17 -42 23
-42 11z"/>
<path d="M1793 6888 c-31 -15 -57 -69 -49 -102 7 -27 58 -66 86 -66 10 0 26
27 44 75 16 42 27 77 25 78 -13 9 -62 27 -72 26 -7 0 -22 -5 -34 -11z"/>
<path d="M2012 6745 c-37 -77 -23 -128 28 -100 35 20 70 18 129 -6 41 -18 51
-26 51 -45 0 -13 -10 -34 -21 -45 -18 -18 -29 -21 -75 -16 -30 3 -54 2 -54 -3
0 -43 277 -172 332 -154 20 6 24 29 7 39 -22 15 -29 55 -14 90 7 19 18 35 23
35 23 0 55 -39 61 -73 8 -48 25 -37 51 34 27 72 26 77 -17 84 -21 4 -60 11
-86 18 -58 13 -71 2 -62 -56 l5 -38 -30 16 c-16 8 -42 20 -56 25 l-26 10 31
29 c17 16 31 34 31 39 0 6 -39 31 -87 57 -49 26 -107 61 -130 76 -23 16 -48
29 -55 29 -8 0 -24 -20 -36 -45z"/>
<path d="M2527 6772 c-19 -21 -22 -42 -7 -42 13 0 50 37 50 50 0 16 -26 11
-43 -8z"/>
<path d="M2695 6738 c-2 -7 -13 -39 -24 -71 -12 -32 -19 -63 -16 -68 4 -5 23
-9 44 -9 45 0 69 23 78 73 4 29 1 40 -20 61 -28 28 -55 34 -62 14z"/>
<path d="M2071 6611 c-26 -17 -4 -41 38 -41 46 0 62 17 36 37 -21 15 -54 17
-74 4z"/>
<path d="M2627 6533 c-8 -21 -19 -55 -25 -76 -10 -35 -9 -39 11 -46 47 -17
107 33 107 88 0 25 -42 71 -63 71 -8 0 -22 -17 -30 -37z"/>
<path d="M2420 6465 c0 -24 24 -44 37 -31 9 8 -14 56 -27 56 -5 0 -10 -11 -10
-25z"/>
<path d="M7130 7669 c0 -5 -4 -8 -9 -4 -5 3 -12 1 -16 -5 -4 -6 5 -10 19 -10
16 0 26 6 26 15 0 8 -4 15 -10 15 -5 0 -10 -5 -10 -11z"/>
<path d="M7116 7625 c-3 -9 0 -15 9 -15 16 0 20 16 6 24 -5 3 -11 -1 -15 -9z"/>
<path d="M7107 7593 c-4 -3 -7 -11 -7 -17 0 -6 5 -5 12 2 6 6 9 14 7 17 -3 3
-9 2 -12 -2z"/>
<path d="M4909 7179 c-14 -19 -29 -40 -33 -47 -15 -25 33 6 50 33 25 39 11 51
-17 14z"/>
<path d="M4595 6240 c3 -5 8 -10 11 -10 2 0 4 5 4 10 0 6 -5 10 -11 10 -5 0
-7 -4 -4 -10z"/>
<path d="M3325 6167 c-4 -15 -4 -44 0 -65 5 -20 10 -48 11 -62 6 -45 21 -104
33 -130 9 -21 10 -15 4 30 -4 30 -6 76 -5 103 2 44 -9 62 -22 35 -3 -7 -4 10
-1 37 5 58 -9 96 -20 52z"/>
<path d="M3233 5831 c-29 -20 -52 -39 -53 -43 0 -6 97 -38 114 -38 3 0 6 9 6
19 0 11 8 22 18 24 16 4 16 5 0 6 -13 1 -18 10 -18 30 0 17 -3 32 -7 34 -5 2
-31 -12 -60 -32z"/>
<path d="M3143 5665 c-3 -9 -3 -18 -1 -21 3 -3 8 4 11 16 6 23 -1 27 -10 5z"/>
<path d="M2038 5383 c23 -2 59 -2 80 0 20 2 1 4 -43 4 -44 0 -61 -2 -37 -4z"/>
<path d="M7540 5204 c0 -48 1 -50 30 -52 25 -2 30 1 30 21 0 13 -13 36 -30 52
l-30 29 0 -50z"/>
<path d="M7883 5223 c-13 -9 -23 -22 -23 -29 0 -18 5 -18 34 2 16 10 26 12 31
5 10 -17 38 -13 32 3 -3 8 -1 17 6 20 7 2 3 5 -8 6 -11 1 -27 3 -35 5 -8 1
-25 -4 -37 -12z"/>
<path d="M2925 5170 c-3 -5 -1 -10 4 -10 6 0 11 5 11 10 0 6 -2 10 -4 10 -3 0
-8 -4 -11 -10z"/>
<path d="M7960 5170 c0 -5 5 -10 10 -10 6 0 10 5 10 10 0 6 -4 10 -10 10 -5 0
-10 -4 -10 -10z"/>
<path d="M1332 5117 c-32 -33 -43 -62 -19 -55 11 4 64 88 55 88 -2 0 -18 -15
-36 -33z"/>
<path d="M2940 5125 c-13 -35 -13 -45 3 -45 7 0 21 15 31 33 11 17 15 29 11
25 -4 -4 -14 -3 -21 3 -11 9 -16 5 -24 -16z"/>
<path d="M8147 5023 c3 -10 14 -26 25 -36 31 -31 18 -51 -33 -49 -27 1 -28 -1
-23 -36 3 -20 11 -40 16 -43 6 -4 5 -8 -3 -11 -24 -8 3 -30 32 -26 16 3 30 0
32 -6 3 -7 9 -6 20 3 9 7 14 18 11 23 -3 5 1 17 9 26 7 9 17 25 20 35 8 23 -2
67 -15 67 -5 0 -7 -10 -4 -22 l6 -23 -11 23 c-7 12 -18 22 -26 22 -12 0 -17
12 -14 33 0 4 -6 7 -14 7 -8 0 -15 7 -15 15 0 8 -4 15 -10 15 -5 0 -7 -8 -3
-17z"/>
<path d="M8210 4990 c0 -5 5 -10 10 -10 6 0 10 5 10 10 0 6 -4 10 -10 10 -5 0
-10 -4 -10 -10z"/>
<path d="M8291 4884 c0 -11 3 -14 6 -6 3 7 2 16 -1 19 -3 4 -6 -2 -5 -13z"/>
<path d="M4550 4869 c0 -5 5 -7 10 -4 6 3 10 8 10 11 0 2 -4 4 -10 4 -5 0 -10
-5 -10 -11z"/>
<path d="M8295 4830 c-3 -10 -1 -29 5 -40 9 -18 14 -19 27 -9 8 7 13 23 10 36
-2 12 1 24 7 27 6 2 -1 5 -16 5 -18 1 -29 -5 -33 -19z"/>
<path d="M3038 4825 c-9 -9 4 -55 13 -49 11 7 12 54 1 54 -5 0 -11 -2 -14 -5z"/>
<path d="M2982 4755 c-2 -18 2 -36 8 -40 7 -4 9 2 6 19 -2 13 0 26 6 28 6 2 4
9 -4 15 -11 10 -14 6 -16 -22z"/>
<path d="M3012 4730 c0 -14 2 -19 5 -12 2 6 2 18 0 25 -3 6 -5 1 -5 -13z"/>
<path d="M8235 4610 c3 -5 8 -10 11 -10 2 0 4 5 4 10 0 6 -5 10 -11 10 -5 0
-7 -4 -4 -10z"/>
<path d="M8750 4400 c0 -5 5 -10 11 -10 5 0 7 5 4 10 -3 6 -8 10 -11 10 -2 0
-4 -4 -4 -10z"/>
<path d="M1832 3990 c0 -14 2 -19 5 -12 2 6 2 18 0 25 -3 6 -5 1 -5 -13z"/>
<path d="M1910 4001 c0 -3 4 -12 9 -19 6 -11 9 -9 13 5 3 12 0 20 -8 20 -8 0
-14 -3 -14 -6z"/>
<path d="M1971 3794 c0 -11 3 -14 6 -6 3 7 2 16 -1 19 -3 4 -6 -2 -5 -13z"/>
<path d="M1771 3784 c0 -11 3 -14 6 -6 3 7 2 16 -1 19 -3 4 -6 -2 -5 -13z"/>
<path d="M1860 3790 c0 -5 7 -10 15 -10 8 0 15 5 15 10 0 6 -7 10 -15 10 -8 0
-15 -4 -15 -10z"/>
<path d="M1761 3724 c0 -11 3 -14 6 -6 3 7 2 16 -1 19 -3 4 -6 -2 -5 -13z"/>
<path d="M4865 3668 c-11 -6 -23 -16 -27 -22 -4 -6 -8 -7 -8 -2 0 5 -7 3 -15
-4 -8 -7 -22 -10 -30 -6 -8 3 -15 1 -15 -4 0 -6 -7 -10 -16 -10 -19 0 -10 -16
19 -32 20 -10 21 -10 8 5 -8 10 -9 17 -3 17 6 0 14 -9 17 -20 6 -19 8 -18 38
12 18 17 31 37 29 45 -2 7 4 13 13 13 8 0 15 5 15 10 0 12 0 12 -25 -2z"/>
<path d="M567 3524 c-17 -10 -24 -20 -20 -32 4 -16 13 -19 49 -17 58 2 65 11
23 29 l-34 14 30 4 30 3 -26 6 c-15 3 -38 0 -52 -7z"/>
<path d="M660 3495 c12 -15 30 -12 30 6 0 5 -10 9 -21 9 -18 0 -19 -2 -9 -15z"/>
<path d="M4993 3466 c0 -7 9 -19 19 -25 18 -11 18 -11 2 14 -19 29 -21 30 -21
11z"/>
<path d="M1163 3320 c-1 -12 4 -20 13 -20 9 0 14 7 12 17 -4 24 -23 27 -25 3z"/>
<path d="M1090 3311 c-13 -26 -13 -31 3 -25 7 2 13 13 14 24 2 25 -3 25 -17 1z"/>
<path d="M1133 3294 c-7 -7 -13 -18 -13 -24 0 -6 -4 -8 -10 -5 -5 3 -10 2 -10
-4 0 -5 5 -11 12 -13 14 -5 3 -38 -13 -38 -6 0 -8 7 -5 16 4 9 2 13 -5 8 -8
-4 -9 1 -4 17 l8 24 -21 -25 c-18 -22 -18 -25 -3 -37 19 -15 90 -17 111 -3 12
8 10 10 -10 11 -14 0 -19 3 -11 6 11 5 11 7 0 14 -11 7 -10 9 4 9 9 0 17 5 17
10 0 6 -6 10 -14 10 -8 0 -16 9 -18 19 -2 16 -5 17 -15 5z"/>
<path d="M1227 3265 c-9 -23 6 -56 21 -46 10 6 10 13 -1 35 -11 21 -16 23 -20
11z"/>
<path d="M668 3253 c7 -3 16 -2 19 1 4 3 -2 6 -13 5 -11 0 -14 -3 -6 -6z"/>
<path d="M888 3023 c6 -2 18 -2 25 0 6 3 1 5 -13 5 -14 0 -19 -2 -12 -5z"/>
<path d="M88 2933 c7 -3 16 -2 19 1 4 3 -2 6 -13 5 -11 0 -14 -3 -6 -6z"/>
<path d="M672 2842 c-9 -2 -4 -9 13 -18 31 -16 35 -17 35 -6 0 12 -34 29 -48
24z"/>
<path d="M845 2833 c-2 -7 -16 -13 -30 -13 -14 0 -25 -5 -25 -11 0 -15 100 -5
155 15 40 14 40 15 10 16 -85 6 -105 4 -110 -7z"/>
<path d="M585 2809 l-50 -6 55 -1 c30 -1 62 3 70 8 16 10 18 10 -75 -1z"/>
<path d="M448 2803 c7 -3 16 -2 19 1 4 3 -2 6 -13 5 -11 0 -14 -3 -6 -6z"/>
<path d="M5920 2786 c0 -2 9 -6 20 -9 11 -3 20 -1 20 4 0 5 -9 9 -20 9 -11 0
-20 -2 -20 -4z"/>
<path d="M350 2720 c0 -13 18 -22 24 -11 3 5 -1 11 -9 15 -8 3 -15 1 -15 -4z"/>
<path d="M720 2230 c0 -5 5 -10 11 -10 5 0 7 5 4 10 -3 6 -8 10 -11 10 -2 0
-4 -4 -4 -10z"/>
<path d="M805 2210 c3 -5 8 -10 11 -10 2 0 4 5 4 10 0 6 -5 10 -11 10 -5 0 -7
-4 -4 -10z"/>
<path d="M1370 1991 c0 -12 6 -21 15 -21 8 0 15 3 15 6 0 3 -7 12 -15 20 -13
14 -15 13 -15 -5z"/>
<path d="M6460 1980 c0 -5 4 -10 9 -10 6 0 13 5 16 10 3 6 -1 10 -9 10 -9 0
-16 -4 -16 -10z"/>
<path d="M5591 1956 c-10 -12 -8 -13 8 -9 12 3 21 9 21 14 0 14 -16 11 -29 -5z"/>
<path d="M1261 1864 c0 -11 3 -14 6 -6 3 7 2 16 -1 19 -3 4 -6 -2 -5 -13z"/>
<path d="M5360 1856 c0 -24 32 -36 59 -22 l24 13 -26 7 c-14 3 -32 9 -41 12
-10 4 -16 1 -16 -10z"/>
</g>
</svg>
